<?xml version="1.0" standalone="no"?>
<!DOCTYPE svg PUBLIC "-//W3C//DTD SVG 1.1//EN" "http://www.w3.org/Graphics/SVG/1.1/DTD/svg11.dtd" >
<svg xmlns="http://www.w3.org/2000/svg" xmlns:xlink="http://www.w3.org/1999/xlink" version="1.1">
<metadata></metadata>
<defs>
<font id="heinekenregular" horiz-adv-x="1067" >
<font-face units-per-em="2048" ascent="1638" descent="-410" />
<missing-glyph horiz-adv-x="700" />
<glyph horiz-adv-x="0" />
<glyph unicode="&#xd;" horiz-adv-x="700" />
<glyph unicode=" "  horiz-adv-x="700" />
<glyph unicode="&#x09;" horiz-adv-x="700" />
<glyph unicode="&#xa0;" horiz-adv-x="700" />
<glyph unicode="!" horiz-adv-x="694" d="M150 1237q-2 129 96 178q42 31 110 23q51 -6 94.5 -42t57.5 -87q8 -37 8 -80q0 -41 -16 -150l-111 -678q-4 -25 -57 -24q-55 0 -60 24zM174 131q0 -66 47 -113t113 -47q68 0 114 47.5t46 112.5q0 68 -46 114t-114 46q-66 0 -113 -46t-47 -114z" />
<glyph unicode="&#x22;" horiz-adv-x="739" d="M119 1370q0 66 49 90q22 17 57 13q61 -8 76 -66q8 -33 -4 -117l-29 -200q-4 -37 -35 -50q-27 -12 -53 7l-18 32zM403 1362q-8 63 50 96q49 31 94 2q41 -25 41 -86q0 -20 -6 -65l-33 -224q-10 -33 -29.5 -43t-46.5 0q-18 4 -35 58q-16 109 -35 262z" />
<glyph unicode="'" horiz-adv-x="458" d="M139 1362q-6 63 49 96q49 31 95 2q41 -25 41 -86q-1 -20 -7 -65l-32 -224q-10 -33 -29.5 -43t-44.5 0q-18 4 -35 58q-18 109 -37 262z" />
<glyph unicode="," horiz-adv-x="643" d="M139 131q0 -63 50.5 -96t50.5 -43q0 -20 -36 -36.5t-36 -27.5q-10 -66 59 -65q68 0 129 41q104 68 105 211q0 76 -48 126t-116 50q-66 0 -112 -46t-46 -114z" />
<glyph unicode="-" horiz-adv-x="808" d="M70 461q10 -20 32 -25h582l27 6q31 16 32 62v76q-6 49 -53 49h-312.5t-279.5 0q-26 0 -28 -33q-6 -100 0 -135z" />
<glyph unicode="." horiz-adv-x="561" d="M117 131q0 -66 47 -113t112 -47q66 0 113 47.5t47 112.5q0 68 -47 114t-113 46t-112.5 -46t-46.5 -114z" />
<glyph unicode=":" horiz-adv-x="575" d="M117 131q0 -66 47 -113t112 -47q66 0 113 47.5t47 112.5q0 68 -47 114t-113 46t-112.5 -46t-46.5 -114zM117 846q0 -66 47 -113t112 -47q66 0 113 47t47 113q0 68 -47 114t-113 46t-112.5 -46.5t-46.5 -113.5z" />
<glyph unicode=";" horiz-adv-x="552" d="M96 846q0 -66 47 -113t113 -47q68 0 115 47t47 113q0 68 -47 114t-115 46q-66 0 -113 -46.5t-47 -113.5zM98 131q0 -63 50.5 -96t50.5 -43q0 -20 -36 -36.5t-36 -27.5q-10 -66 59 -65q68 0 129 41q104 68 105 211q0 76 -48 126t-116 50q-66 0 -112 -46t-46 -114z" />
<glyph unicode="?" horiz-adv-x="989" d="M51 1128q0 72 33 123q117 195 410 187q135 -4 251.5 -85t161.5 -192q33 -80 33 -170q0 -219 -156 -327q-53 -39 -146 -76t-118 -58q-45 -35 -39 -100q4 -45 -67 -49q-66 -4 -74 37q-8 35 -8 71q0 84 36 160t99 113q150 92 149 260q0 131 -49 213q-39 61 -129 35 q-53 -14 -67 -53q-12 -27 -2 -117q6 -74 -29 -109q-59 -57 -145 -49q-86 10 -123 90q-20 43 -21 96zM262 131q0 -66 47 -113t113 -47q68 0 114 47.5t46 112.5q0 68 -46 114t-114 46q-66 0 -113 -46t-47 -114z" />
<glyph unicode="@" horiz-adv-x="1978" d="M51 483q0 406 297 680q291 268 707 269q348 0 605 -229.5t257 -547.5q0 -276 -164 -475q-106 -129 -225 -178q-51 -23 -127 -22q-68 0 -115 17t-86 56t-49 39q-14 0 -41 -20q-37 -27 -45 -31q-82 -59 -184 -59q-131 0 -236 104q-92 92 -131 227q-25 90 -25 176 q0 266 201 422q131 100 271 101q39 0 97 -17.5t70 -38.5q6 -10 15 -10q10 2 12 10q8 47 19 48h251q25 -6 31 -27l4 -39l-8 -557q0 -86 8 -119q10 -47 47 -57q25 -8 82 37q68 57 111 147q57 117 57 264q0 252 -209 435.5t-493 183.5q-340 0 -567.5 -227.5t-227.5 -559.5 q0 -322 225.5 -548t546.5 -226q201 0 398 68q188 66 309 166q29 25 51 6q33 -29 39 -76q2 -33 -17 -55q-76 -90 -243 -168q-248 -117 -561 -117q-397 0 -674 272q-283 274 -283 676zM813 453q0 -180 88 -252q31 -23 74 -23q29 0 51 12q74 37 100 127q16 51 21 166 q10 199 -62 303q-37 45 -96 45t-104 -55q-72 -111 -72 -323z" />
<glyph unicode="A" horiz-adv-x="1253" d="M-37 51q0 37 2 74q4 25 42 40t46 40l25 69q127 385 393 1151q6 18 53 25l240 -2q14 -2 37 -47l26 -90q84 -285 353 -1086q12 -39 92 -65q18 -16 18 -54q0 -31 -2 -61q-2 -37 -24 -45l-41 -6l-498 2q-29 2 -31 33q0 8 -4 45q-4 29 0 45q4 23 21 33q25 8 51 18t24 37 q-16 74 -59 201q-12 18 -36.5 20t-47.5 4h-295q-31 -2 -43 -29l-53 -182q-2 -33 40 -49t50 -37q4 -26 4 -49q0 -40 -12 -76q-8 -10 -76 -18l-264 2q-31 12 -31 57zM375 621q2 -10 33 -19q225 0 237 2q20 12 17 25q-41 145 -132 438q-12 4 -16 -10q-92 -272 -139 -436z" />
<glyph unicode="B" horiz-adv-x="1222" d="M66 127q10 29 58 40t54 40q2 344 8 1032q-4 27 -55 36t-49 48q-2 31 -2 59q2 35 24 50l25 4q-2 0 330 4q50 0 95 1q136 0 234 -5q109 -6 170 -41l66 -39q125 -104 125 -275q0 -35 -6 -69q-37 -143 -164 -209q-12 -6 -33 -23q31 -16 92 -51q164 -98 164 -313q0 -37 -6 -74 q-14 -100 -89 -190.5t-172 -124t-177 -33.5l-647 -2q-35 2 -43 28zM541 229q0 -25 21.5 -28.5t43.5 -3.5q139 0 193 86q45 74 45 172q0 84 -35 147q-51 90 -188 90h-39q-25 0 -35 -12l-6 -412v-39zM549 885l10 -11q29 -4 55 -4q85 0 134 41q55 59 55 156q0 53 -19 100 q-38 91 -166 91q-10 0 -22 -1q-12 -2 -26.5 -4t-16.5 -14q-4 -326 -4 -354z" />
<glyph unicode="C" horiz-adv-x="1126" d="M33 709q0 315 151 542q145 221 426 222q97 0 187 -33q10 -4 22 -4q4 0 74 30q78 0 94 -12q18 -27 28.5 -71t20.5 -83l45 -251q6 -33 -20 -52q-58 -22 -86 -22h-2q-23 0 -41 10q-16 23 -35 68q-23 55 -31 71q-37 68 -59 97q-43 51 -92 61q-18 4 -37 4q-98 0 -162 -92 q-84 -121 -94 -410q-2 -43 -2 -83q0 -250 65 -400q25 -57 76 -92q44 -30 94 -30q9 0 17 1q147 12 252 266q6 23 32 39q10 2 23 2q41 0 98 -36q18 -20 19 -50q0 -4 -27 -100q-53 -121 -137 -205q-98 -100 -211 -116q-59 -14 -119 -15q-264 0 -426 232q-143 209 -143 512z" />
<glyph unicode="D" horiz-adv-x="1255" d="M59 86q0 31 4 57q10 16 72 35q40 10 40 47q0 6 -1 13l4 1001q-6 31 -54 40t-54 36q2 10 -2 47q-2 31 2 45q4 25 26 33q127 5 267.5 5t295.5 -5l164 -4q92 -2 183 -76q78 -63 129 -160q102 -197 102 -481q0 -178 -41 -348q-27 -106 -98 -197q-74 -96 -173.5 -137 t-191.5 -41l-633 2q-31 6 -36 31.5t-5 56.5zM537 221l6 -16q21 -16 56 -16q17 0 36 4q125 2 178 141q49 131 49 323q0 76 -8 179q-16 225 -66 325q-38 76 -126 96q-29 4 -52 4q-51 0 -67 -22q-2 -338 -6 -1018z" />
<glyph unicode="E" horiz-adv-x="1132" d="M66 51q2 37 2 76q6 31 53 42t57 32q2 70 2 145v703q2 76 2 143v39q0 25 -14 37q-31 6 -63.5 15t-32.5 44v68q0 37 32 45l748 4q53 -2 106 -2q63 -4 82 -49t31 -119q18 -111 21 -125q1 -9 1 -18q0 -56 -24 -70q-47 -14 -78 -14q-26 0 -41 10q-8 12 -55 117q-33 74 -82 102 q-27 4 -221 4q-31 -6 -41 -27l-6 -41l2 -327q4 -27 28 -33q22 -2 41 -2q56 0 80 22q23 23 31 75t18 73q22 18 65 18q21 0 46 -4q18 -4 31 -39q9 -144 9 -279q0 -77 -3 -151q-2 -35 -37 -45q-28 -6 -51 -6q-36 0 -57 16q-6 10 -21 82q-12 49 -45 66q-34 4 -60 4 q-52 0 -71 -16l-6 -29v-404q0 -37 28 -61q23 -10 54 -14h59q41 2 57 2h4q101 0 154 114q23 66 66 193q16 25 51 25q14 0 39.5 -5.5t34.5 -5.5q29 -10 29 -77q0 -10 -1 -21q-6 -170 -28 -303q-14 -53 -43 -70.5t-138 -17.5h-174l-637 4q-33 12 -34 55z" />
<glyph unicode="F" horiz-adv-x="1034" d="M57 1339q0 86 23.5 98.5t66.5 12.5h68l741 -4q45 -6 62 -41q20 -57 53 -266q8 -43 -10.5 -60.5t-104.5 -29.5q-27 6 -43 36q-31 66 -59 129q-43 72 -115 72h-174q-39 0 -47 -33q-1 -14 -1 -60q0 -92 3 -312q4 -27 35 -29t59 -4q49 4 70 41q8 16 16 67q4 45 23 64 q21 11 75 11q15 0 33 -1q27 -8 33 -39q8 -150 8 -291q0 -71 -2 -139q0 -31 -30 -43q-29 -6 -53 -6q-38 0 -62 16q-8 12 -23 82q-10 53 -49 68q-32 6 -57 6q-44 0 -68 -18q-10 -81 -10 -193v-39q2 -234 4 -234v1q6 -27 52.5 -33t56.5 -31q4 -33 4 -59q0 -42 -10 -66 q-12 -18 -37 -18l-475 -2q-39 0 -45 33q2 12 0 36q-2 31 -2 41q0 49 36 62q18 4 37 8t25 21l4 18l-2 956q2 27 2 56q-2 35 -16 53q-31 8 -64 18.5t-31 44.5z" />
<glyph unicode="G" horiz-adv-x="1232" d="M33 711q0 207 69 391q63 168 185 266q131 109 301 109q69 0 219 -47q20 -4 41 12q29 20 37 24h62h-7q33 -2 51 -18q16 -29 41 -131q23 -86 60 -260q0 -33 -19 -51q-45 -35 -100 -35q-25 0 -45 8l-19 25q-43 121 -78 174q-61 92 -151 102h-7q-87 0 -128 -49 q-115 -133 -121 -426q-2 -55 -2 -103q0 -127 12 -204q25 -170 107 -273q55 -53 121 -53q53 0 92 35t49 88q12 60 12 135q0 53 -6 113q-2 37 -33 49q-4 2 -69 10q-45 4 -54 37q-3 27 -3 49q0 59 20 82l28 12l422 -2q41 -14 43 -47q5 -413 5 -599q0 -62 -1 -99q-6 -35 -39 -41 q-68 -4 -65 -4q-41 0 -62 22q-35 41 -59 43q-35 -2 -82 -28q-55 -31 -78 -37q-80 -31 -168 -31q-207 0 -360 152q-221 217 -221 600z" />
<glyph unicode="H" horiz-adv-x="1382" d="M66 1321q-5 38 -5 65q0 36 9 52q20 18 59 18t74 2q328 0 391 -2q23 -4 35 -26q2 -27 2 -48q0 -51 -13 -71q0 -2 -65 -21q-35 -9 -35 -42v-7l6 -305q6 -16 64 -16q2 6 8 4q8 -6 10 -4h232q16 8 16 36l-4 301q-8 25 -53 32t-54 32l-4 96q6 31 33 37h424h72q43 0 57 -31 q0 -35 2 -71q0 -43 -33 -56q-23 -4 -46 -9t-31 -25v-62q0 -212 8 -997q8 -27 54 -34t56 -34v1v-77q0 -43 -26 -59l-41 -6l-480 2q-25 2 -34 22q-2 37 -6 72q0 43 20 68q6 4 49 14q31 6 43 27l-2 446v9q0 27 -10 67l-19 8h-286q-18 -10 -19 -35v-41l4 -450q10 -25 59.5 -32 t55.5 -44v-70q0 -41 -27 -55l-59 -2h-442q-31 0 -37 27q0 12 -4 51q-2 35 2 51q6 25 26 37q20 4 43 9t31 26l2 98q0 86 -10 954q0 33 -43 41q-49 8 -59 27z" />
<glyph unicode="I" horiz-adv-x="753" d="M94 1321q-4 31 -4 54q0 53 19 71l24 8q120 1 215 1q190 0 279 -5q27 -6 30 -39v-57q2 -20 -12 -45q-10 -10 -55 -17q-35 -6 -43 -32l-2 -39q2 -553 4 -928q0 -31 2 -60q2 -39 18 -55q8 -4 49 -10q31 -6 41 -25q8 -32 8 -62q0 -34 -10 -67q-16 -18 -49 -18h-463 q-33 4 -41 22q-2 35 -6 70q0 39 15 66q8 10 55 20q37 8 37 41q0 16 -10 1042q-6 29 -45 35q-45 8 -56 29z" />
<glyph unicode="J" horiz-adv-x="784" d="M-50 18.5q52 42.5 113 42.5q41 0 74 -19t47.5 -59t26.5 -79q16 -18 37 -10q35 33 35 98q0 39 -17 108q-14 61 -30 125q-16 74 -19 131l-6 232q-2 154 -2 663q-8 29 -63 41q-50 10 -50 48v6q0 76 13 96l24 12l240 2q10 6 24 -2l242 -2q31 0 39 -31q2 -37 4 -73 q-2 -43 -37 -54q-23 -4 -47.5 -10t-28.5 -29l-2 -79q-1 -70 -1 -198q0 -256 5 -747q-20 -231 -118 -368q-110 -155 -316 -155q-17 0 -35 1q-80 6 -139 60q-65 56 -65 133q0 74 52 116.5z" />
<glyph unicode="K" horiz-adv-x="1327" d="M82 1393q0 43 27 61l36 4l451 2q41 -4 45 -30q0 -33 2 -66q-2 -39 -27 -55q-27 -6 -55.5 -13.5t-32.5 -35.5v-373q4 -23 23 -8l295 376q6 31 0 39q-6 6 -32 11.5t-33 25t-5 53.5q4 66 4 58q8 27 49 26l242 2q8 -2 62 0q39 0 57 -18q10 -37 10 -67q0 -38 -16 -66 q-39 -12 -109 -62l-237 -305q-20 -29 -13 -55l29 -53l387 -643q12 -18 49 -27.5t49 -26.5q7 -36 7 -66q0 -41 -13 -69l-18 -12q-149 -4 -275 -4h-82q-29 6 -69 76l-334 567q-14 12 -20 12l-7 -14l2 -426q0 -35 49.5 -41t58.5 -32q5 -14 5 -44q0 -28 -4 -69q-4 -18 -31 -25 l-438 -6q-61 0 -76 16q-5 19 -5 67q0 24 1 54q4 29 45 37t49 29l4 41l-2 1015q-4 16 -24 37q-20 4 -42 9.5t-32 21.5q-5 74 -6 74v-2z" />
<glyph unicode="L" horiz-adv-x="1079" d="M78 51q0 35 1 69t40 44q49 14 57 29l4 20l-2 934q0 -2 1 -2q3 0 3 86q0 45 -32 59q-20 4 -41 9.5t-31 21.5q-4 31 -4 55q0 52 18 70l21 10q270 3 398 3q64 0 93 -1q33 0 37 -35v-57q0 -33 -14 -53q-10 -10 -52 -17q-33 -4 -43 -24l-8 -45v-120q0 -279 6 -874 q6 -53 37 -65l39 -8q61 0 125 2q74 8 115 50t65 120q20 68 43 133q14 29 52 29q12 0 34.5 -4.5t32.5 -4.5q35 -6 35 -36q1 -27 1 -53q0 -156 -30 -316q-10 -51 -39.5 -68.5t-150.5 -17.5q-87 -1 -204 -1q-234 0 -585 3q-23 16 -22 55z" />
<glyph unicode="M" horiz-adv-x="1505" d="M72 1417q6 31 28 37q41 4 112 4h50l264 -2q29 -8 41 -39l185 -454q4 -8 14 -5l12 21l135 391q29 86 68 86h430q39 2 45 -24q4 -39 6 -78v-6q0 -38 -22 -58q-25 -4 -51.5 -8t-32.5 -29l-8 -59l2 -995q8 -25 52 -32t54 -30q3 -16 3 -45t-3 -72q-8 -20 -33 -26h-512 q-33 12 -34 59q2 37 2 76q4 31 53 38t55 38q1 32 1 95q0 191 -5 669q-2 8 -10 6l-10 -12l-213 -594q-10 -16 -37 -19q6 -2 -72 -2q-41 0 -53 33q-68 190 -209 573q-6 10 -14 4l-5 -30l2 -703q6 -41 33 -55q4 0 45 -10q25 -6 35 -25q6 -35 6 -64q0 -37 -10 -63 q-10 -18 -57 -18l-310 2q-14 2 -28 22q-5 37 -5 64q0 42 11 63q8 8 45 21q29 10 37 33l10 55l-4 977q0 35 -31 47q-18 6 -36.5 11t-26.5 22q-7 21 -7 56q0 24 3 54z" />
<glyph unicode="N" horiz-adv-x="1323" d="M102 18q-12 32 -12 62.5t12 60.5q8 14 44 25.5t42 34.5l9 39l4 989q0 47 -35 55q-16 4 -36.5 9t-27.5 22q-2 31 -2 55q0 58 13 78q20 16 55 14l352 -2q39 -6 84 -100l330 -715q6 -6 10 -4l8 10l-2 559q0 41 -24 62q-8 8 -38 14t-38 23q-7 30 -7 58q0 39 13 73 q14 18 57 18l312 -4q29 -12 30 -53v-68q0 -39 -23.5 -46t-48 -12t-32.5 -26l-8 -39l-4 -1169q-8 -47 -37 -47l-240 4q-27 2 -45 47l-405 907q-12 23 -23 0l-4 -700q4 -31 6 -39q6 -20 23 -33q8 -4 51 -16q33 -6 39 -33q2 -35 4 -68q0 -39 -19 -59l-18 -8h-334q-14 4 -35 22z " />
<glyph unicode="O" horiz-adv-x="1265" d="M53 729q0 272 115 481q74 133 205 205q125 70 278 70q150 0 279 -82t190 -219q102 -227 103 -479q0 -373 -219 -594q-141 -141 -349 -146h-8q-127 0 -258 64q-104 51 -176 151v6q-96 111 -135 299q-25 123 -25 244zM440 809q4 -227 15 -301q18 -166 82 -272 q40 -68 112 -68h4q78 2 113 74q74 150 74 397q0 401 -88 578q-39 79 -112 79h-7q-68 -4 -105 -63q-47 -80 -67 -203q-8 -51 -21 -221z" />
<glyph unicode="P" horiz-adv-x="1161" d="M63 1397q0 45 29 57l137 2l410 4h11q242 0 356 -90q174 -139 174 -387q0 -90 -27 -174q-31 -92 -106.5 -168t-167.5 -98q-61 -16 -156 -19h-158q-16 -6 -20 -26q0 4 0 -291q4 -31 50 -38t56 -26q4 -16 4 -45.5t-4 -74.5q-2 -20 -30 -27l-508 -2q-31 0 -39 33q0 12 -4 47 q-2 31 0 47q4 23 20 37q4 4 49 12q31 6 41 27q1 95 1 217t-1 270q-2 414 -2 485q-2 35 -2 70q-2 43 -37 49q-23 2 -45 8.5t-28 26.5q-2 37 -3 74zM541 770q0 -45 20 -55q29 -10 60 -10q76 0 116 47q72 84 72 223q0 113 -45 199q-51 102 -162 102q-61 0 -61 -33v-473z" />
<glyph unicode="Q" horiz-adv-x="1277" d="M51 733q0 307 135 516q153 238 452 238q25 0 52 -2q123 -6 232 -74.5t172 -179.5q129 -229 129 -518q0 -297 -142 -508q-84 -125 -202 -187q-8 -4 -72 -26q-43 -16 -66 -39q-2 -12 7.5 -27.5t29.5 -13.5q43 6 37 6q23 8 47 8q68 0 117 -47q33 -33 33 -82q0 -51 -45 -94 q-71 -65 -191 -65h-4q-109 0 -164 71q-45 49 -45 139q0 43 10 97q-10 27 -49 35q-55 10 -63 16q-176 57 -285 231q-98 154 -117 351q-8 82 -8 155zM436 762q0 -184 35 -363q6 -25 23 -26q29 6 57 6q80 0 127 -51q16 -18 31 -52q16 -41 24 -53q8 -10 19 0q84 137 84 446v29 q-4 324 -78 504q-39 96 -127 96q-17 0 -35 -6q-68 -25 -119 -168q-41 -164 -41 -362zM518 270q6 -33 51 -77q14 -12 23 -5q4 16 -6 48l-29 30q-29 14 -39 4z" />
<glyph unicode="R" horiz-adv-x="1284" d="M94 1335v74q0 45 35 53l41 2l635 -6q113 0 212 -63.5t140 -167.5q27 -72 27 -154q0 -131 -66.5 -214t-208.5 -120l11 -4q80 -6 154.5 -62.5t96.5 -133.5q20 -61 23 -168q2 -143 6 -176q4 -25 41 -35t45 -31q6 -28 6 -53q0 -36 -12 -66q-10 -14 -29.5 -15t-38.5 -3l-350 4 q-33 8 -35 49l-4 340q-2 102 -8 135q-14 74 -67 107q-40 20 -85 20q-35 0 -75 -12l-15 -25v-401q0 -35 48.5 -41t58.5 -25q4 -20 4 -50.5t-4 -69.5q-8 -27 -35 -29l-516 4q-29 14 -31 57q2 37 4 72t50.5 42t56.5 34q1 102 1 233.5t-1 292.5q-2 446 -2 526q-4 33 -55.5 41.5 t-57.5 38.5zM571 864q4 -37 37 -37q25 -4 47 -4q109 0 148 70q35 63 35 154q0 80 -29.5 142.5t-103.5 74.5l-75 4h1q-43 -2 -58 -31z" />
<glyph unicode="S" horiz-adv-x="1093" d="M109 494q2 27 4 34q4 20 16 31q31 14 68 14q28 0 59 -8q20 -14 25 -41.5t10 -52.5q53 -315 272 -315q78 0 129 51t51 119q0 20 -6 43q-16 51 -69 100q-18 16 -101 76q-246 176 -291 219q-153 146 -153 315q0 231 207 348q84 47 190 48q72 0 131 -25l64 -27q23 -4 45 15 q31 25 39 26q20 2 37 2q39 0 59 -10l18 -24q16 -70 54 -340q6 -37 -25 -50q-52 -12 -85 -12q-20 0 -32 4q-18 18 -28 58q-12 47 -19 59q-20 55 -63 94q-49 45 -105 45q-55 0 -94 -43q-31 -32 -31 -80q0 -23 7 -49q18 -74 135 -151q199 -133 247 -174q135 -119 162 -246 q12 -55 13 -111q0 -209 -164 -358q-117 -106 -293 -107q-88 0 -164 29q-10 4 -47 23q-29 16 -47 16q-12 0 -21.5 -4t-40.5 -35q-20 -20 -45 -18q-27 2 -54.5 4t-39.5 20l-8 37z" />
<glyph unicode="T" horiz-adv-x="1105" d="M-45 1102q16 170 45 282q8 39 43 62l41 10q516 4 782 5q89 0 150 -1q34 0 61 -41l17 -41q18 -88 43 -272q-10 -31 -45 -39t-68 -14q-31 -6 -47 30q-43 100 -57 121q-45 68 -109 80q-19 4 -34 4q-21 0 -36 -8q-16 -10 -18 -70q0 -88 4 -1011q8 -27 59.5 -35t51.5 -49 q-2 -35 -2 -72q-2 -43 -37 -51h-498q-31 0 -39 28q2 14 0 41q-4 33 -4 41q0 49 41 60q29 4 39 6q20 8 29 27q3 166 3 382q0 288 -5 666q0 27 -27 41q-14 2 -29 2q-57 0 -106 -45q-31 -33 -55.5 -83t-47.5 -95q-14 -14 -37 -14q-14 0 -38 8q-33 10 -39 10q-29 6 -31 35z" />
<glyph unicode="U" horiz-adv-x="1265" d="M76 1329q-1 20 -1 36q0 66 13 83l27 12h481q31 0 41 -26q4 -18 4 -41q0 -28 -6 -64q-10 -23 -57.5 -30t-51.5 -39l-4 -279v-406q0 -188 8 -223q25 -129 134 -162q23 -4 45 -4q104 0 157 78q41 60 41 209v14l-4 693q-2 63 -16 94q-6 6 -58 24q-37 14 -36 43q0 8 2 17 q2 29 3 60.5t25 43.5q82 0 238 6h84h2q47 0 57 -38q-1 -14 -1 -34t1 -46q0 -18 -14 -47q-10 -8 -46 -13.5t-44 -29.5q0 -2 -10 -74l4 -654q0 -164 -15 -225q-25 -104 -106.5 -194t-184.5 -119q-72 -18 -143 -19q-205 0 -338 136q-121 123 -125 256l-6 122l2 736q0 49 -16 63 q-8 6 -47 15q-29 4 -39 26z" />
<glyph unicode="V" horiz-adv-x="1153" d="M-33 1339v28q0 65 8 85q14 14 56 18l475 -4q27 -8 29 -41.5t4 -64.5q0 -16 -17 -47q-29 -4 -73 -35q-4 -12 -5 -29q0 -14 23 -96l209 -754q8 -10 16 -6l10 25l185 821q-4 33 -21 41q-6 6 -45 20q-27 10 -28 33q-3 27 -3 49q0 45 11 72q16 16 71 16l271 -4q33 -10 35 -53 v-74q-6 -29 -50.5 -45t-50.5 -43l-24 -77l-279 -1156q-8 -22 -58 -22h-5h-252q-33 6 -43 39q-109 369 -369 1214q-4 27 -41 46.5t-39 43.5z" />
<glyph unicode="W" horiz-adv-x="1589" d="M-47 1327q-1 23 -1 41q0 65 11 82l25 10h504q36 -4 36 -39v-14q0 -28 2 -55q0 -43 -30 -58q-20 -2 -39 -6q-25 -6 -31 -24q16 -154 55 -385q61 -354 68 -381l8 -6l8 8l17 94q35 276 110 825q10 37 41 41q93 6 166 6q59 0 105 -4q43 -4 49 -51t12 -90l111 -844q4 -8 16 -4 l8 14q43 254 105 770q0 27 -36 39.5t-42 30.5q-4 27 -4 53q0 29 4 56q6 16 26 22q328 0 357 -2q25 -14 26 -55v-65.5t-36 -43.5q-55 -16 -60 -20q-37 -29 -53 -82q-4 -12 -18 -96l-183 -1063q-6 -29 -37 -39q-56 -3 -125.5 -3t-150.5 3q-39 8 -47 33q-51 287 -133 794 q-10 10 -15 8l-10 -41l-127 -759q-12 -29 -37 -35q-57 -5 -133 -5q-57 0 -123 3q-35 6 -49 78q-141 680 -248 1179q-6 31 -50 44.5t-52 35.5z" />
<glyph unicode="X" horiz-adv-x="1271" d="M20 53v70q8 23 37 37q41 20 47 24l37 54q88 174 262 520q10 21 10 39q0 15 -7 28l-232 432q-10 20 -49 31.5t-51 32.5q-3 31 -3 55q0 49 13 74q18 12 55 12h60l442 -2q27 -8 27 -26q0 -8 4 -43q2 -29 0 -45q-4 -23 -17 -37q-20 -6 -41.5 -13.5t-29.5 -27.5l2 -29 q49 -98 159 -283q6 0 21 19q41 88 113 264q1 5 1 9q0 30 -36 44q-47 18 -51 39l-2 99q4 25 32.5 27.5t53.5 2.5l294 -2q23 -6 27 -22q1 -26 1 -47q0 -64 -9 -84q-12 -8 -49 -18.5t-51 -29.5l-35 -63l-197 -424v-41l272 -510q23 -43 101 -72q15 -16 15 -88q0 -16 -1 -34 q2 -23 -33 -35l-540 6q-20 -2 -35 20q-5 31 -5 60q0 35 7 69q6 4 45 21q29 12 37 33q-25 82 -82 190l-98 184q-12 18 -25 9l-170 -336q-7 -17 -7 -33q0 -18 9 -33q8 -10 34 -21.5t30 -27.5q2 6 4 -61q2 -37 -11.5 -56.5t-76.5 -19.5l-279 6q-27 12 -29 53z" />
<glyph unicode="Y" horiz-adv-x="1177" d="M-29 1348q0 63 0 57q2 16 11 43q8 10 28 10h33l483 -2q53 0 64 -18q4 -20 4 -49t-4 -68q-4 -20 -39 -28.5t-41 -26.5l6 -37l166 -373q12 -12 18 -8l19 26l153 336q4 19 4 33q0 25 -12 33q-6 6 -39 18q-25 10 -28 29q-1 22 -1 41q0 64 11 80l20 8l363 -2q27 -16 27 -55 q0 -12 -3.5 -38t-3.5 -36q-6 -20 -27.5 -25.5t-39.5 -11.5q-45 -20 -62 -67l-270 -564l-14 -59v-340q2 -20 6 -43t20 -35q10 -10 41 -17t41 -26q6 -40 6 -69q0 -44 -14 -64l-25 -10l-524 2q-33 12 -35 57q0 37 2 74q6 27 58.5 44t54.5 56l4 53l-6 322l-16 47l-322 586 q-10 29 -40 41t-58 22q-18 16 -19 54z" />
<glyph unicode="Z" horiz-adv-x="1165" d="M63 20q-5 29 -5 56q0 54 22 96l565 1073q10 37 -16 43q-98 4 -126 4h-11q-84 -2 -126 -34.5t-75 -90.5q-27 -47 -53 -96q-14 -12 -35 -12q-10 0 -31.5 4t-32.5 4q-23 6 -28 10q-14 6 -21 23v15q0 66 29 208q12 57 20 78q18 43 56 55q49 8 170 8l671 -6q37 -10 45 -37 q0 -33 6 -96h3l-7 -4l-14 -45l-565 -1077q-6 -25 20 -33q6 0 90 -2q22 -2 41 -2q28 0 50 4q47 6 81 27q59 35 99 112q27 68 55 137q12 33 53 33q10 0 32 -2t30 -2q18 -2 51 -20q7 -17 7 -50q0 -21 -3 -49q-8 -113 -41 -332q-22 -34 -79 -34h-3q-10 0 -47 2q-29 2 -45 2 q-266 2 -799 4q-29 0 -33 26z" />
<glyph unicode="^" horiz-adv-x="1103" d="M281 1069l6 27q98 115 231 213q12 8 27 8q18 0 86 -55q47 -41 92 -80q55 -49 80 -88q10 -29 0 -45q-14 -20 -45 -15q-68 35 -211 86q-39 -6 -90 -28q-78 -37 -86 -41q-55 -20 -72 -13q-18 8 -18 31z" />
<glyph unicode="_" horiz-adv-x="862" d="M-23 -231q-4 -63 0 -84q6 -14 21 -17h862l17 4q18 10 20 39v47q-4 31 -33 31q-18 0 -444 2q-428 0 -424 0q-19 1 -19 -22z" />
<glyph unicode="`" horiz-adv-x="1038" d="M287 1274q2 35 26.5 60.5t57.5 25.5q40 0 112 -68l164 -155q20 -27 15 -45q0 -25 -23 -39q-14 -12 -68 4q-98 47 -235 123q-55 29 -49 94z" />
<glyph unicode="a" horiz-adv-x="1060" d="M35 240q0 27 4 51q25 152 184 233q72 37 299 97q41 12 52.5 35.5t11.5 52.5q0 55 -29 94q-35 41 -78 41h-4q-68 -4 -94 -66q-10 -39 -47 -114q-10 -8 -27 -11q-10 0 -30.5 2t-26.5 2q-45 12 -88 23q-49 18 -62 61q-1 11 -1 22q0 120 145 200q106 57 243 57q145 0 248 -66 q92 -57 131 -151q49 -117 54 -297v-305q0 -10 14 -27q14 -2 35.5 11.5t34.5 13.5q6 0 14 -4q45 -37 47 -70q-41 -92 -164 -127q-35 -10 -100 -14q-16 2 -47 10q-37 6 -80 41q-33 31 -66 61q-16 -4 -40.5 -26.5t-37.5 -28.5q-86 -63 -208 -64q-90 0 -158 35q-129 66 -129 228 zM340 291q0 -33 14 -62q31 -50 91 -50q9 0 18 1q84 8 112 62q22 52 22 127q0 43 -7 94q-6 25 -33 24q-28 1 -57 -22q-88 -23 -131 -84q-29 -39 -29 -90z" />
<glyph unicode="b" horiz-adv-x="1095" d="M29 1403q2 23 22 31l12 4l340 -6q23 -2 35 -29q-2 -80 -2 -200.5t2 -280.5q4 -12 21 0q91 65 209 65h4q102 0 176 -51q231 -160 231 -461q0 -70 -14 -139q-27 -123 -127 -223.5t-223 -128.5q-51 -12 -103 -13q-143 0 -239 82q-23 6 -49 -22q-33 -33 -48 -39 q-17 -6 -54 -6q-29 0 -70 4q-16 2 -31 28q-2 170 -2 1239q-8 18 -42 26.5t-41 23t-7 96.5zM420 516v-53q0 -99 6 -144q18 -106 88 -163q33 -25 80 -25q33 0 59 14q88 55 95 222q1 20 1 38q0 194 -57 308q-18 37 -49 55q-31 19 -64 19q-28 0 -57 -13q-61 -37 -82 -115 q-8 -29 -20 -143z" />
<glyph unicode="c" horiz-adv-x="966" d="M59 694q47 133 163 229.5t251 100.5h20q277 0 390 -186q32 -50 32 -119v-4q0 -53 -20 -97q-37 -80 -123 -90q-12 -1 -24 -1q-70 0 -121 51q-28 28 -28 82q0 12 1 26q3 35 3 61q0 39 -7 59q-12 32 -47 46q-20 7 -39 7q-35 0 -70 -23q-59 -57 -75 -156q-8 -47 -11 -180 q25 -156 43 -207q43 -111 144 -141q20 -2 41 -2q68 0 143 43q35 20 123 88q6 2 13 2q21 0 45 -24q30 -32 30 -62q-29 -92 -191 -172q-100 -51 -221 -52q-205 0 -342 127q-157 146 -157 391q0 107 34 203z" />
<glyph unicode="d" horiz-adv-x="1118" d="M27 475q0 260 194 412q123 96 287 96q74 0 139 -25q10 4 19 17q4 72 4 141.5t-4 138.5q-8 12 -50 23q-33 10 -38 35q-2 33 -3 63q0 37 25 49q56 4 173 4q77 0 181 -2q27 -6 33 -26l4 -39v-1180q8 -20 37 -26q41 -6 45 -9q27 -14 27 -55v-65q-6 -27 -25 -31l-61 -6l-262 2 q-18 0 -32.5 27.5t-33.5 27.5q-133 -74 -250 -74q-133 0 -241 95q-100 88 -140 223q-28 89 -28 178v6zM352 428q2 -180 90 -252q33 -20 74 -20q29 0 51 10q74 37 101 127q14 51 16 166v30q0 177 -66 273q-39 47 -98 47q-57 0 -102 -57q-66 -105 -66 -301v-23z" />
<glyph unicode="e" horiz-adv-x="1003" d="M33 469v17q1 140 63 263q66 130 193 203q94 57 219 58q154 0 266 -80q101 -69 148 -182q55 -131 55 -189q0 -35 -82 -67q-98 -39 -299 -103l-176 -47q-14 -6 -17 -18q4 -76 60.5 -130.5t130.5 -54.5q90 0 205 86q23 18 46 40t50 16q57 -31 61 -78q-14 -70 -135 -154 t-289 -84q-125 0 -225 49q-129 61 -203 191q-68 119 -71 264zM375 518q16 -25 37 -20q137 31 233 75q16 16 14 43q-2 100 -41 175q-31 57 -102 57q-21 0 -41 -8q-72 -27 -98 -131q-15 -61 -15 -110q0 -45 13 -81z" />
<glyph unicode="f" horiz-adv-x="743" d="M59 838q-5 26 -5 53t5 55q8 31 63.5 32t61.5 34q49 256 191 354q43 47 151 72q45 10 88 10q168 0 244 -125q33 -55 33 -111q0 -37 -14 -65q-43 -92 -154 -98h-5q-66 0 -97 55q-2 4 -21 94q-12 57 -63 59h-5q-32 0 -57 -53q-12 -39 -12 -82q0 -76 33 -121q19 -26 73 -26 q3 0 7 1h5q55 0 70 -30q1 -44 1 -70t-1 -34q-20 -20 -69 -23q-57 0 -76 -10t-19 -68q0 -184 7 -559q10 -16 69 -30q43 -11 43 -51v-7q0 10 2 -51q0 -33 -18 -45q-55 -8 -248 -8l-233 2q-31 4 -35 24q-4 30 -4 55q0 34 8 58q10 18 67 29q38 9 38 41q0 5 -1 10l-2 557 q0 37 -24 47q-4 2 -62 6q-25 2 -35 19z" />
<glyph unicode="g" horiz-adv-x="1030" d="M41 -209q0 18 6 35q8 37 43 57q31 14 60 15q57 0 135 -64q100 -84 125 -96q63 -31 135 -31q68 0 117 29q36 30 36 50q0 26 -8 40q-14 18 -84 31q-162 0 -233 16q-123 29 -189 121q-34 46 -34 105q0 54 22.5 91t75.5 76q8 12 -6 21q-174 121 -174 325q0 35 6 72 q18 109 109 198t204 113q51 12 107 12q69 0 147 -18q4 0 18 21q25 147 117 182q35 12 72 12h3q85 0 110 -65q13 -33 13 -60q0 -32 -18 -56q-34 -44 -151 -62q-18 -8 -23 -25q0 -14 15.5 -26.5t29.5 -22.5q131 -119 131 -277q0 -47 -14 -96q-25 -92 -105.5 -168t-176.5 -106 q-68 -23 -144 -23q-54 0 -112 12q-20 -6 -27 -26q-4 -29 18.5 -46.5t91.5 -25.5q162 0 203 -2q113 -10 189 -51q114 -77 114 -205q0 -27 -4 -51q-39 -205 -340 -266q-76 -16 -151 -17q-225 0 -391 129q-68 68 -68 123zM381 659q0 -100 49 -190q37 -70 100 -70h7q31 2 59 29 q45 55 45 147q0 68 -23 142q-52 119 -120 123q-47 -4 -70 -33q-47 -55 -47 -148z" />
<glyph unicode="h" horiz-adv-x="1177" d="M43 18q-3 31 -3 55q0 48 11 68q10 12 53 19q37 6 46 30v1070q-8 10 -60 26q-33 13 -33 44v7v52q2 31 25 41q41 0 123 4l231 -4q20 -2 31 -27l2 -64l2 -411q2 -10 10 -10q166 83 280 83h3q72 0 133 -30q131 -66 131 -279v-493q-2 -25 16 -33q14 -2 40 14.5t38 16.5 q14 0 29 -15q29 -31 29 -49q0 -49 -64 -94q-55 -39 -108 -49q-39 -8 -76 -8q-125 0 -191 84q-41 55 -41 174l-2 473q-8 39 -39 59q-20 10 -45 10q-45 0 -79 -30q-63 -53 -64 -199l4 -375q10 -10 51 -16t49 -31q5 -26 5 -53q0 -32 -7 -66q-12 -18 -73 -18h-422q-31 4 -35 24z " />
<glyph unicode="i" horiz-adv-x="612" d="M39 12q8 -16 29 -20h223q176 2 225 2l43 6q27 12 29 49q0 33 -2 63.5t-21 39.5q-4 2 -49 8q-29 4 -35 24v701q0 63 -10 82q-15 18 -41 18q-9 0 -18 -2l-275 -2h-49q-29 -4 -35 -29q-3 -33 -3 -57t3 -39q8 -18 35 -25q37 -10 43 -14q14 -12 14 -61v-574q-10 -25 -54 -28.5 t-52 -30.5q-2 -41 -2 -69t2 -42zM104 1260q0 -74 52.5 -126.5t126.5 -52.5t126 52.5t52 126.5t-52 126t-126 52t-126.5 -52.5t-52.5 -125.5z" />
<glyph unicode="j" horiz-adv-x="567" d="M-205 -229q0 -90 64 -150q74 -70 196 -70q43 0 86 11q92 18 169 87.5t110 160.5q35 100 43 249q2 25 6 263q4 182 4 327q0 181 -6 303q-8 23 -21 25l-335 4l-45 -4q-25 -10 -27 -49q0 -31 -2 -64q4 -27 48 -37t50 -34l2 -668l10 -102q16 -55 43 -175q-2 -59 -34 -81 q-18 -6 -33 -7q-37 0 -64 58q-33 72 -53 86q-26 24 -66 24h-3q-66 0 -104 -46t-38 -111zM96 1260q0 -74 52.5 -126.5t125.5 -52.5q74 0 126.5 52.5t52.5 126.5t-52.5 126t-126.5 52t-126 -52.5t-52 -125.5z" />
<glyph unicode="k" horiz-adv-x="1122" d="M37 94q0 41 18 68q8 8 49 14q33 4 35 31l4 1071q-6 8 -53 29q-35 16 -31 49v53q2 31 25 41h297l35 -6q20 -8 24 -39l-2 -305l-2 -461q2 -10 10 -10l15 4q68 59 198 182q-6 10 -30.5 14.5t-28.5 16.5l-8 20v72q4 43 37 52l391 -7q31 -8 33 -45v-66t-37 -41 q-59 -12 -62 -14q-51 -29 -176 -151q-14 -14 -14 -31q0 -16 16 -43q18 -33 23 -43l198 -361q10 -31 61.5 -38t59.5 -33q0 -35 -3 -74t-32 -49l-256 -2q-61 0 -77 31q-74 131 -219 395q-6 10 -25 4q-23 -18 -45 -37q-25 -25 -29 -47q-1 -42 -1 -73q0 -62 5 -83q10 -14 48 -20 t49 -29q7 -32 7 -59q0 -36 -12 -64q-27 -14 -71 -14q-33 1 -52 1t-24 -1q-94 0 -283 -6q-51 4 -56 36.5t-9 67.5z" />
<glyph unicode="l" horiz-adv-x="651" d="M57 117q6 31 41 41q29 8 60 14q14 12 14 55l4 1037q-6 20 -42 27t-43 27q-4 13 -4 50q0 21 1 49q4 20 37 27l334 -4q27 -4 35 -37l-2 -232l-5 -983q10 -20 64 -30q45 -8 47 -42t4 -67q-2 -39 -31 -51q-86 0 -258 -4h-41q-69 0 -178 4q-20 -2 -30 24q-8 21 -7 72v23z" />
<glyph unicode="m" horiz-adv-x="1712" d="M49 27q-2 30 -2 53q0 52 12 70q14 10 41 14q35 6 46.5 11t11.5 63q4 233 4 432v129q-4 20 -39 28.5t-39 32.5v72q2 45 37 54q41 1 91 0q99 0 232 -3q33 -2 44 -33q0 -10 14 -28q18 2 43 14q33 14 41 18q106 33 184 33q96 0 156 -47q22 -21 59 -66q12 -12 25 -2 q123 115 282 115q49 0 99 -12q59 -16 106 -66.5t57 -111.5q13 -82 13 -193v-16q-4 -106 -6 -213l-2 -199q4 -20 18 -26q14 0 37.5 16t36.5 16q8 0 16 -6q44 -31 44 -57q0 -3 -1 -6q-25 -102 -162 -136q-45 -10 -88 -10q-133 0 -194 92q-31 49 -35 136q2 74 2 145q1 60 1 148 t-1 206q-2 47 -51 68q-17 5 -32 5q-24 0 -46 -13q-80 -51 -80 -195l-2 -377q12 -14 47 -18t46 -18.5t13 -36.5q2 -16 0 -46q-2 -35 -2 -43q-8 -20 -33.5 -22t-50.5 -4h-268q-35 0 -43 2q-23 4 -35 20l-4 50q-5 69 -5 162q0 70 3 153q4 183 4 268v45q-12 53 -49 70 q-18 8 -35 8q-31 0 -59 -27q-61 -59 -63 -190v-365q6 -20 34 -22q37 -4 43 -8q27 -16 29 -58q0 -37 -2 -71q-2 -18 -27 -31q-4 0 -483 -2q-25 6 -33 29z" />
<glyph unicode="n" horiz-adv-x="1191" d="M49 43v68q4 31 23 39q4 2 53 10q33 6 35 33v606q-8 16 -39 21t-37 22q-3 34 -3 60q0 44 9 61l25 16q42 1 126.5 1t211.5 -1q16 -4 43 -59q10 -4 41 12q121 65 239 65h4h3q123 0 194 -79q61 -70 63 -168q0 -188 2 -564q0 -20 17 -24q12 2 37.5 17.5t38.5 15.5q16 0 28 -17 q28 -26 28 -47q0 -4 -1 -8q-20 -82 -137 -127q-52 -20 -102 -20q-42 0 -83 14q-47 8 -90 48t-55 87l-8 55l-2 410l4 90q0 56 -31 80q-25 20 -58 19q-8 0 -16 -1q-96 -18 -116 -119q-4 -53 -9 -471q2 -20 29 -24q37 -4 41 -6q29 -8 33 -27q1 -26 1 -47q0 -62 -9 -78l-17 -10 q-162 0 -481 -2q-33 8 -35 49z" />
<glyph unicode="o" horiz-adv-x="1081" d="M25 453h6q-1 13 -1 26q0 141 60 260q70 139 203 213q113 63 256 64q186 0 315 -101q78 -59 131 -163q59 -113 60 -248q0 -209 -123 -354q-145 -172 -393 -173q-94 0 -181 29q-137 47 -228 171t-97 267q-8 8 -8 9zM371 571q6 -137 20 -204q23 -111 84 -181q40 -35 90 -35 q18 0 37 5q74 27 94 90q27 76 27 172q0 145 -53 303q-14 47 -53 85t-87 38q-16 0 -32 -4q-74 -25 -103 -109q-14 -45 -24 -160z" />
<glyph unicode="p" horiz-adv-x="1093" d="M12 -360q-2 29 2 45q4 25 23 36q6 6 45 15q29 4 35 26q2 344 8 1033q-6 18 -44 31.5t-38 42v57.5q2 35 25 45q86 0 268 4h49q31 0 45 -14q2 -18 23 -43q123 71 218 71h3q115 0 217 -84q96 -78 142 -192.5t46 -237.5q0 -227 -146.5 -362.5t-330.5 -135.5q-80 0 -149 29 q-18 -2 -21 -18l-2 -209q0 -37 50 -47.5t50 -46.5l2 -54q0 -33 -10 -49q-22 -14 -115 -14h-24h-326q-35 8 -41 26q0 6 -4 46zM418 463q0 -70 10 -139q29 -188 162 -189q59 0 98 41q63 78 64 219q0 47 -9 121q-16 152 -67 221q-37 50 -101 50q-7 0 -14 -1q-39 -4 -72.5 -36.5 t-44.5 -71.5q-26 -94 -26 -207v-8z" />
<glyph unicode="q" horiz-adv-x="1087" d="M18 483q0 272 209 420q119 82 265 82q98 0 170 -45q18 -2 47.5 19.5t50.5 19.5q24 2 57 2q51 0 125 -4q25 -6 31 -33l2 -57q1 -45 1 -184q0 -279 -5 -934q4 -29 46 -37t48 -35q3 -34 3 -60q0 -38 -7 -55q-20 -16 -60 -16q-47 -1 -109 -1q-124 0 -308 3q-14 2 -33 18 l-12 33l6 2q0 31 3 64.5t34 40.5q25 2 65 20l8 29q1 27 1 63q0 72 -3 178q-10 14 -45 2q-72 -36 -161 -36h-5q-125 0 -215 61q-209 145 -209 440zM344 446q0 -166 80 -249q39 -35 88 -35q37 0 68 18q78 47 92 176q8 76 8 138q0 162 -57 258q-37 59 -111 59q-15 0 -27 -2 q-78 -29 -110 -115q-16 -49 -27 -166q-4 -45 -4 -82z" />
<glyph unicode="r" horiz-adv-x="911" d="M47 23q-1 33 -1 58t1 42q8 25 51 32t56 25v86l-2 506q0 37 -17.5 41t-34 7t-22.5 18q-5 37 -5 72q0 17 1 34q6 20 28 31q113 2 332 2q16 2 41 -19q4 -16 14 -49q100 102 213 103q126 -1 187 -107q37 -59 41 -139q-6 -33 -41 -46t-66 -24q-6 0 -57 -18q-35 -10 -57 -10 q-18 0 -35 6q-14 29 -29 59q-20 33 -53 35h-4q-35 0 -68 -31q-47 -63 -47 -215v-12l4 -330q10 -12 44 -16t45.5 -17.5t13.5 -35.5q2 -14 2 -41q-2 -31 -2 -41q-4 -27 -25 -31l-78 -4h-399q-25 0 -31 29z" />
<glyph unicode="s" horiz-adv-x="894" d="M35 352q4 29 4 33q6 16 22 21q31 9 54 9q31 0 49 -16q61 -156 145 -202q74 -41 142 -41q57 0 96 32q26 24 26 58q0 53 -73 88q-233 109 -250 119q-137 86 -162 211q-6 33 -6 65q0 133 102 215q84 66 213 66q98 0 176 -37l43 -17q8 -2 17 -2q16 0 32.5 14.5t30.5 28.5 q19 3 35 3q38 0 51 -21q14 -51 23 -133q6 -68 12 -135q-5 -49 -76 -49q-14 0 -32 2q-16 14 -35 45q-25 41 -33 51q-72 88 -147 88q-68 0 -91 -43q-12 -22 -12 -43q0 -28 21 -55q47 -43 143 -74q113 -35 152 -60q152 -74 157 -239v-8q0 -88 -43 -166q-45 -82 -127 -125 q-88 -47 -200 -47q-80 0 -148 24q-78 29 -94 29q-14 0 -27 -4q-20 -14 -42.5 -29.5t-45.5 -11.5q-20 -2 -53 14q-20 31 -31 150z" />
<glyph unicode="t" horiz-adv-x="645" d="M51 868q-3 24 -3 45q0 41 13 68q25 6 76 23q76 27 121 108q27 47 59 154q17 24 50 24q23 0 55 -12l14 -23v-241q10 -25 45 -31h58q16 0 28 -4q27 -16 27 -61v3q-1 0 -6 -75q-12 -20 -44 -22.5t-61 -2.5q-18 -2 -26 -4q-14 -6 -19 -18q-6 -37 -6 -246v-328q6 -20 8 -24 q8 -14 21 -17h6q23 0 49 27q30 31 47 31q12 0 27 -11q45 -51 45 -71q0 -12 -6 -25q-76 -133 -240 -153l-27 -2q-33 0 -92 18q-20 10 -63 29q-82 66 -82 186l-2 537q0 53 -8 73q-8 8 -34 17.5t-30 27.5z" />
<glyph unicode="u" horiz-adv-x="1128" d="M29 850q-4 27 -4 50q0 38 10 67q10 18 53 20l309 -2q29 -6 35 -35v-674q0 -51 53 -73q16 -6 33 -6q63 0 107 59q23 31 32 90l5 430q-2 14 -4.5 29.5t-16.5 19.5t-31.5 8.5t-22.5 16.5t-5 106q6 29 34 34q53 1 108 0q108 0 220 -3q29 -2 36 -25.5t9 -125.5 q-4 -130 -4 -334q0 -136 2 -305q6 -20 23 -25q12 -2 33.5 11.5t33.5 13.5t25 -13q25 -18 33 -49q-6 -78 -125 -133q-45 -20 -103 -20q-74 0 -131 32q-8 2 -53 41q-27 20 -50 20q-6 0 -11 -1q-170 -94 -293 -94q-74 0 -136 32q-121 61 -127 203q-2 72 -2 592q-10 12 -39.5 18 t-35.5 25z" />
<glyph unicode="v" horiz-adv-x="1040" d="M-16 905v39q2 25 14 34t22 9q161 0 480 -2q31 -6 30 -33q0 -69 1 -69l1 6q-4 -37 -30 -49q-25 -4 -64 -33q-12 -16 -6 -39q4 -20 10 -39l142 -348q10 -18 22 -4q29 70 68 186q47 147 63 189q4 53 -4 62t-37.5 21.5t-40.5 28.5q-3 71 -4 71v-3q2 39 29 51q60 2 129 2 q103 0 227 -4q23 -12 25 -49q0 8 -2 -60q-10 -25 -53 -38t-54 -37l-30 -70l-271 -715q-16 -18 -35 -18h-161q-23 6 -39 45l-328 737q-10 25 -37.5 39t-52.5 27q-14 16 -14 53v10z" />
<glyph unicode="w" horiz-adv-x="1527" d="M-12 979q6 8 24 12q51 -2 115 -2h219q85 0 146 -4q25 -10 24 -24q0 -92 1 -92l1 24q-2 -39 -30.5 -51.5t-34.5 -16.5q-18 -10 -23.5 -27.5t-5.5 -35.5q0 -20 37 -135l78 -234q6 -10 14 -6l12 19l101 342q4 16 8 34q4 23 -7.5 35t-45 24.5t-37.5 35.5v59q0 35 22 49l37 6 q150 0 449 -3q24 -13 24 -69q0 -24 -4 -55q-8 -18 -46 -28.5t-46 -34.5q-1 -6 -1 -14q0 -27 15 -74l103 -318q12 -16 20 -12l8 12q35 119 97 357q0 4 4 24q2 16 0 25q-2 14 -10.5 21t-38 18.5t-37.5 29.5q-2 70 -3 70l-1 -4q2 39 30 53q70 1 128 1q117 0 188 -2 q27 -10 28 -48q0 -31 -4 -59.5t-45 -41t-49 -30.5l-20 -35q-39 -125 -111 -374.5t-109 -374.5q-14 -25 -46.5 -28t-63.5 -3h-82q-49 0 -64 39l-161 502q-10 12 -21 4l-16 -37l-150 -473q-10 -29 -28 -35q-47 -2 -94.5 -2t-96.5 2q-25 10 -43 61q-88 242 -264 723 q-10 27 -38 41.5t-54 28.5q-13 26 -13 60q0 32 11 71z" />
<glyph unicode="x" horiz-adv-x="1132" d="M35 129q12 18 53 28.5t55 32.5q70 100 209 308q6 14 -2 30l-221 287q-10 12 -41 20.5t-37 26.5q0 12 -2 38t-2 34q0 39 27 51l43 2l444 -4q25 -4 29 -25q7 -28 7 -53t-7 -47q-6 -12 -45 -23.5t-39 -27.5q0 -10 12 -27q39 -55 123 -151l14 6q88 102 129 166q0 20 -28 26 q-35 8 -42 18.5t-12 98.5q10 27 25 31l37 3h285q29 -8 32 -40v-61q4 -31 -21.5 -38.5t-70.5 -33.5l-229 -291q-12 -16 0 -27l233 -307q10 -14 60 -24q39 -8 39 -41v-92q-4 -12 -25 -23l-47 -4l-459 2q-23 2 -29 22q-3 29 -3 52q0 44 12 67q8 10 38.5 16.5t36.5 24.5l-6 27 l-127 166q-6 4 -12 4t-12 -4q-29 -39 -121 -176q-12 -18 2 -33q4 -6 35 -19q23 -8 24 -28q0 -35 -3 -72t-29 -47l-275 -2q-18 0 -49 12q-11 17 -11 65q0 24 3 56z" />
<glyph unicode="y" d="M27 913q-4 29 0 45q4 20 22 33h27l471 -4q23 -6 26 -37v-49q2 -18 -14 -47l-49 -20q-31 -12 -35 -37q18 -84 68 -207q43 -102 84 -203q6 -12 16 -4l10 16l129 379q4 35 -12 47q-4 8 -16.5 9.5t-16.5 7.5q-43 14 -45 39v59q2 31 23 47l39 4q106 -2 303 -2q27 0 37 -22 q8 -26 8 -50q0 -29 -12 -57q-33 -10 -91 -49l-24 -45l-213 -551l-90 -238q-55 -137 -113 -229q-91 -146 -246 -146q-15 0 -30 1q-127 10 -181 112q-22 37 -22 82q0 51 24 84q39 56 104 56q14 0 30 -3q29 -4 72.5 -51t74.5 -47q18 0 37 14q45 43 45 117q0 55 -25 107 l-315 714q-10 25 -50 41.5t-48 40.5q0 6 -2 43z" />
<glyph unicode="z" horiz-adv-x="995" d="M49 18q-9 33 -9 60q0 33 13 57l37 55l442 607q6 10 -12 14h-147q-84 -8 -121 -66q-12 -10 -31 -63q-16 -41 -47 -41q-8 0 -18 2q-8 2 -52 0q-31 0 -47 12q-6 14 -6 31q0 18 10.5 54t10.5 51q10 53 43 153q27 39 88 39l684 -4q31 -14 31 -61q0 -79 -3 -79v1q0 -35 -16 -66 q-147 -193 -436 -577q-6 -18 -6 -19l8 -4h45q62 0 92 4q72 12 117 58q16 18 88 139q16 12 39 12q16 0 44 -7t38 -9t20 -23q-10 -137 -53 -301q-12 -35 -35 -47l-43 -6q-123 0 -745 4q-18 8 -23 20z" />
<glyph unicode="&#xad;" horiz-adv-x="808" d="M70 461q10 -20 32 -25h582l27 6q31 16 32 62v76q-6 49 -53 49h-312.5t-279.5 0q-26 0 -28 -33q-6 -100 0 -135z" />
<glyph unicode="&#xb4;" horiz-adv-x="1011" d="M346 1096l16 32l216 201q53 37 102 12q25 -10 41 -41q31 -53 -10 -100q-20 -25 -99 -63l-180 -90q-35 -16 -59 0q-27 16 -27 49z" />
<glyph unicode="&#xe0;" d="M35 240q0 27 4 51q25 152 184 233q72 37 299 97q41 12 52.5 35.5t11.5 52.5q0 55 -29 94q-37 43 -82 41q-68 -4 -94 -66q-10 -39 -47 -114q-10 -8 -27 -11q-10 0 -30.5 2t-26.5 2q-45 12 -88 23q-49 18 -62 61q-14 135 144 222q106 57 243 57q145 0 248 -66 q92 -57 131 -151q49 -117 54 -297v-305q0 -10 14 -27q14 -2 35.5 11.5t34.5 13.5q6 0 14 -4q45 -37 47 -70q-41 -92 -164 -127q-35 -10 -100 -14q-16 2 -47 10q-37 6 -80 41q-33 31 -66 61q-16 -4 -40.5 -26.5t-37.5 -28.5q-86 -63 -208 -64q-90 0 -158 35q-129 66 -129 228 zM287 1274q2 35 26.5 60.5t57.5 25.5q40 0 112 -68l164 -155q20 -27 15 -45q0 -25 -23 -39q-14 -12 -68 4q-98 47 -235 123q-55 29 -49 94zM340 291q0 -33 14 -62q35 -57 109 -49q84 8 112 62q35 82 15 221q-6 25 -33 24q-28 1 -57 -22q-88 -23 -131 -84q-29 -39 -29 -90z " />
<glyph unicode="&#xe1;" d="M35 240q0 27 4 51q25 152 184 233q72 37 299 97q41 12 52.5 35.5t11.5 52.5q0 55 -29 94q-37 43 -82 41q-68 -4 -94 -66q-10 -39 -47 -114q-10 -8 -27 -11q-10 0 -30.5 2t-26.5 2q-45 12 -88 23q-49 18 -62 61q-14 135 144 222q106 57 243 57q145 0 248 -66 q92 -57 131 -151q49 -117 54 -297v-305q0 -10 14 -27q14 -2 35.5 11.5t34.5 13.5q6 0 14 -4q45 -37 47 -70q-41 -92 -164 -127q-35 -10 -100 -14q-16 2 -47 10q-37 6 -80 41q-33 31 -66 61q-16 -4 -40.5 -26.5t-37.5 -28.5q-86 -63 -208 -64q-90 0 -158 35q-129 66 -129 228 zM340 291q0 -33 14 -62q35 -57 109 -49q84 8 112 62q35 82 15 221q-6 25 -33 24q-28 1 -57 -22q-88 -23 -131 -84q-29 -39 -29 -90zM346 1096l16 32l216 201q53 37 102 12q25 -10 41 -41q31 -53 -10 -100q-20 -25 -99 -63l-180 -90q-35 -16 -59 0q-27 16 -27 49z" />
<glyph unicode="&#xe2;" d="M35 240q0 27 4 51q25 152 184 233q72 37 299 97q41 12 52.5 35.5t11.5 52.5q0 55 -29 94q-37 43 -82 41q-68 -4 -94 -66q-10 -39 -47 -114q-10 -8 -27 -11q-10 0 -30.5 2t-26.5 2q-45 12 -88 23q-49 18 -62 61q-14 135 144 222q106 57 243 57q145 0 248 -66 q92 -57 131 -151q49 -117 54 -297v-305q0 -10 14 -27q14 -2 35.5 11.5t34.5 13.5q6 0 14 -4q45 -37 47 -70q-41 -92 -164 -127q-35 -10 -100 -14q-16 2 -47 10q-37 6 -80 41q-33 31 -66 61q-16 -4 -40.5 -26.5t-37.5 -28.5q-86 -63 -208 -64q-90 0 -158 35q-129 66 -129 228 zM240 1069l6 27q98 115 231 213q12 8 27 8q18 0 86 -55q47 -41 92 -80q55 -49 80 -88q10 -29 0 -45q-14 -20 -45 -15q-68 35 -211 86q-39 -6 -90 -28q-78 -37 -86 -41q-55 -20 -72 -13q-18 8 -18 31zM340 291q0 -33 14 -62q35 -57 109 -49q84 8 112 62q35 82 15 221 q-6 25 -33 24q-28 1 -57 -22q-88 -23 -131 -84q-29 -39 -29 -90z" />
<glyph unicode="&#xe4;" d="M35 240q0 27 4 51q25 152 184 233q72 37 299 97q41 12 52.5 35.5t11.5 52.5q0 55 -29 94q-37 43 -82 41q-68 -4 -94 -66q-10 -39 -47 -114q-10 -8 -27 -11q-10 0 -30.5 2t-26.5 2q-45 12 -88 23q-49 18 -62 61q-14 135 144 222q106 57 243 57q145 0 248 -66 q92 -57 131 -151q49 -117 54 -297v-305q0 -10 14 -27q14 -2 35.5 11.5t34.5 13.5q6 0 14 -4q45 -37 47 -70q-41 -92 -164 -127q-35 -10 -100 -14q-16 2 -47 10q-37 6 -80 41q-33 31 -66 61q-16 -4 -40.5 -26.5t-37.5 -28.5q-86 -63 -208 -64q-90 0 -158 35q-129 66 -129 228 zM225 1192q0 -45 32 -76t75 -31q45 0 75.5 31t30.5 76t-30.5 75.5t-75.5 30.5q-43 0 -75 -30.5t-32 -75.5zM340 291q0 -33 14 -62q35 -57 109 -49q84 8 112 62q35 82 15 221q-6 25 -33 24q-28 1 -57 -22q-88 -23 -131 -84q-29 -39 -29 -90zM614 1192q0 -45 31 -76t76 -31 t75.5 31t30.5 76t-30.5 75.5t-75.5 30.5t-76 -30.5t-31 -75.5z" />
<glyph unicode="&#xe8;" horiz-adv-x="1011" d="M33 469q-4 150 62.5 280t193.5 203q94 57 219 58q154 0 266 -80q101 -69 148 -182q55 -131 55 -189q0 -35 -82 -67q-98 -39 -299 -103l-176 -47q-14 -6 -17 -18q4 -76 60.5 -130.5t130.5 -54.5q90 0 205 86q23 18 46 40t50 16q57 -31 61 -78q-14 -70 -135 -154t-289 -84 q-125 0 -225 49q-129 61 -203 191q-68 119 -71 264zM287 1274q2 35 26.5 60.5t57.5 25.5q40 0 112 -68l164 -155q20 -27 15 -45q0 -25 -23 -39q-14 -12 -68 4q-98 47 -235 123q-55 29 -49 94zM375 518q16 -25 37 -20q137 31 233 75q16 16 14 43q-2 100 -41 175 q-31 57 -102 57q-21 0 -41 -8q-72 -27 -98 -131q-29 -117 -2 -191z" />
<glyph unicode="&#xe9;" horiz-adv-x="1011" d="M33 469q-4 150 62.5 280t193.5 203q94 57 219 58q154 0 266 -80q101 -69 148 -182q55 -131 55 -189q0 -35 -82 -67q-98 -39 -299 -103l-176 -47q-14 -6 -17 -18q4 -76 60.5 -130.5t130.5 -54.5q90 0 205 86q23 18 46 40t50 16q57 -31 61 -78q-14 -70 -135 -154t-289 -84 q-125 0 -225 49q-129 61 -203 191q-68 119 -71 264zM346 1096l16 32l216 201q53 37 102 12q25 -10 41 -41q31 -53 -10 -100q-20 -25 -99 -63l-180 -90q-35 -16 -59 0q-27 16 -27 49zM375 518q16 -25 37 -20q137 31 233 75q16 16 14 43q-2 100 -41 175q-31 57 -102 57 q-21 0 -41 -8q-72 -27 -98 -131q-29 -117 -2 -191z" />
<glyph unicode="&#xea;" horiz-adv-x="1011" d="M33 469q-4 150 62.5 280t193.5 203q94 57 219 58q154 0 266 -80q101 -69 148 -182q55 -131 55 -189q0 -35 -82 -67q-98 -39 -299 -103l-176 -47q-14 -6 -17 -18q4 -76 60.5 -130.5t130.5 -54.5q90 0 205 86q23 18 46 40t50 16q57 -31 61 -78q-14 -70 -135 -154t-289 -84 q-125 0 -225 49q-129 61 -203 191q-68 119 -71 264zM260 1069l6 27q98 115 232 213q12 8 26 8q18 0 86 -55q47 -41 92 -80q55 -49 80 -88q10 -29 0 -45q-14 -20 -45 -15q-68 35 -211 86q-39 -6 -90 -28q-78 -37 -86 -41q-55 -20 -71 -13q-18 8 -19 31zM375 518 q16 -25 37 -20q137 31 233 75q16 16 14 43q-2 100 -41 175q-31 57 -102 57q-21 0 -41 -8q-72 -27 -98 -131q-29 -117 -2 -191z" />
<glyph unicode="&#xeb;" horiz-adv-x="1011" d="M33 469q-4 150 62.5 280t193.5 203q94 57 219 58q154 0 266 -80q101 -69 148 -182q55 -131 55 -189q0 -35 -82 -67q-98 -39 -299 -103l-176 -47q-14 -6 -17 -18q4 -76 60.5 -130.5t130.5 -54.5q90 0 205 86q23 18 46 40t50 16q57 -31 61 -78q-14 -70 -135 -154t-289 -84 q-125 0 -225 49q-129 61 -203 191q-68 119 -71 264zM205 1192q0 -45 31.5 -76t74.5 -31q45 0 76 31t31 76t-31 75.5t-76 30.5q-43 0 -74.5 -30.5t-31.5 -75.5zM375 518q16 -25 37 -20q137 31 233 75q16 16 14 43q-2 100 -41 175q-31 57 -102 57q-21 0 -41 -8 q-72 -27 -98 -131q-29 -117 -2 -191zM614 1192q0 -45 31 -76t76 -31t75.5 31t30.5 76t-30.5 75.5t-75.5 30.5t-76 -30.5t-31 -75.5z" />
<glyph unicode="&#xec;" horiz-adv-x="612" d="M39 12q8 -16 29 -20h223q176 2 225 2l43 6q27 12 29 49q0 33 -2 63.5t-21 39.5q-4 2 -49 8q-29 4 -35 24v701q0 63 -10 82q-20 24 -59 16l-275 -2h-49q-29 -4 -35 -29q-6 -66 0 -96q8 -18 35 -25q37 -10 43 -14q14 -12 14 -61v-574q-10 -25 -54 -28.5t-52 -30.5 q-4 -82 0 -111zM82 1274q2 35 26.5 60.5t57.5 25.5q41 0 113 -68l163 -155q20 -27 15 -45q0 -25 -23 -39q-14 -12 -67 4q-98 47 -236 123q-55 29 -49 94z" />
<glyph unicode="&#xed;" horiz-adv-x="612" d="M39 12q8 -16 29 -20h223q176 2 225 2l43 6q27 12 29 49q0 33 -2 63.5t-21 39.5q-4 2 -49 8q-29 4 -35 24v701q0 63 -10 82q-20 24 -59 16l-275 -2h-49q-29 -4 -35 -29q-6 -66 0 -96q8 -18 35 -25q37 -10 43 -14q14 -12 14 -61v-574q-10 -25 -54 -28.5t-52 -30.5 q-4 -82 0 -111zM100 1096l17 32l215 201q53 37 102 12q25 -10 41 -41q31 -53 -10 -100q-20 -25 -98 -63l-181 -90q-35 -16 -59 0q-27 16 -27 49z" />
<glyph unicode="&#xee;" horiz-adv-x="612" d="M35 1069l6 27q98 115 231 213q12 8 27 8q18 0 86 -55q47 -41 92 -80q55 -49 80 -88q10 -29 0 -45q-14 -20 -45 -15q-68 35 -211 86q-39 -6 -90 -28q-78 -37 -86 -41q-55 -20 -72 -13q-18 8 -18 31zM39 12q8 -16 29 -20h223q176 2 225 2l43 6q27 12 29 49q0 33 -2 63.5 t-21 39.5q-4 2 -49 8q-29 4 -35 24v701q0 63 -10 82q-20 24 -59 16l-275 -2h-49q-29 -4 -35 -29q-6 -66 0 -96q8 -18 35 -25q37 -10 43 -14q14 -12 14 -61v-574q-10 -25 -54 -28.5t-52 -30.5q-4 -82 0 -111z" />
<glyph unicode="&#xef;" horiz-adv-x="612" d="M39 12q8 -16 29 -20h223q176 2 225 2l43 6q27 12 29 49q0 33 -2 63.5t-21 39.5q-4 2 -49 8q-29 4 -35 24v701q0 63 -10 82q-20 24 -59 16l-275 -2h-49q-29 -4 -35 -29q-6 -66 0 -96q8 -18 35 -25q37 -10 43 -14q14 -12 14 -61v-574q-10 -25 -54 -28.5t-52 -30.5 q-4 -82 0 -111zM41 1192q0 -45 31.5 -76t74.5 -31q45 0 76 31t31 76t-31 75.5t-76 30.5q-43 0 -74.5 -30.5t-31.5 -75.5zM348 1192q0 -45 31 -76t76 -31t75.5 31t30.5 76t-30.5 75.5t-75.5 30.5t-76 -30.5t-31 -75.5z" />
<glyph unicode="&#xf2;" horiz-adv-x="1081" d="M25 453h6q-6 156 59 286q70 139 203 213q113 63 256 64q186 0 315 -101q78 -59 131 -163q59 -113 60 -248q0 -209 -123 -354q-145 -172 -393 -173q-94 0 -181 29q-137 47 -228 171t-97 267q-8 8 -8 9zM371 571q6 -137 20 -204q23 -111 84 -181q55 -47 127 -30 q74 27 94 90q27 76 27 172q0 145 -53 303q-14 47 -53 85t-87 38q-16 0 -32 -4q-74 -25 -103 -109q-14 -45 -24 -160zM389 1274q2 35 26.5 60.5t57.5 25.5q41 0 113 -68l164 -155q20 -27 14 -45q0 -25 -23 -39q-14 -12 -67 4q-98 47 -236 123q-55 29 -49 94z" />
<glyph unicode="&#xf3;" horiz-adv-x="1081" d="M25 453h6q-6 156 59 286q70 139 203 213q113 63 256 64q186 0 315 -101q78 -59 131 -163q59 -113 60 -248q0 -209 -123 -354q-145 -172 -393 -173q-94 0 -181 29q-137 47 -228 171t-97 267q-8 8 -8 9zM371 571q6 -137 20 -204q23 -111 84 -181q55 -47 127 -30 q74 27 94 90q27 76 27 172q0 145 -53 303q-14 47 -53 85t-87 38q-16 0 -32 -4q-74 -25 -103 -109q-14 -45 -24 -160zM387 1096l16 32l215 201q53 37 103 12q25 -10 41 -41q31 -53 -10 -100q-20 -25 -99 -63l-180 -90q-35 -16 -59 0q-27 16 -27 49z" />
<glyph unicode="&#xf4;" horiz-adv-x="1081" d="M25 453h6q-6 156 59 286q70 139 203 213q113 63 256 64q186 0 315 -101q78 -59 131 -163q59 -113 60 -248q0 -209 -123 -354q-145 -172 -393 -173q-94 0 -181 29q-137 47 -228 171t-97 267q-8 8 -8 9zM301 1069l6 27q98 115 232 213q12 8 26 8q18 0 86 -55q47 -41 92 -80 q55 -49 80 -88q10 -29 0 -45q-14 -20 -45 -15q-68 35 -211 86q-39 -6 -90 -28q-78 -37 -86 -41q-55 -20 -72 -13q-18 8 -18 31zM371 571q6 -137 20 -204q23 -111 84 -181q55 -47 127 -30q74 27 94 90q27 76 27 172q0 145 -53 303q-14 47 -53 85t-87 38q-16 0 -32 -4 q-74 -25 -103 -109q-14 -45 -24 -160z" />
<glyph unicode="&#xf6;" horiz-adv-x="1081" d="M25 453h6q-6 156 59 286q70 139 203 213q113 63 256 64q186 0 315 -101q78 -59 131 -163q59 -113 60 -248q0 -209 -123 -354q-145 -172 -393 -173q-94 0 -181 29q-137 47 -228 171t-97 267q-8 8 -8 9zM225 1192q0 -45 32 -76t75 -31q45 0 75.5 31t30.5 76t-30.5 75.5 t-75.5 30.5q-43 0 -75 -30.5t-32 -75.5zM371 571q6 -137 20 -204q23 -111 84 -181q55 -47 127 -30q74 27 94 90q27 76 27 172q0 145 -53 303q-14 47 -53 85t-87 38q-16 0 -32 -4q-74 -25 -103 -109q-14 -45 -24 -160zM676 1192q0 -45 30.5 -76t75.5 -31t76 31t31 76 t-31 75.5t-76 30.5t-75.5 -30.5t-30.5 -75.5z" />
<glyph unicode="&#xf9;" horiz-adv-x="1136" d="M29 850q-10 70 6 117q10 18 53 20l309 -2q29 -6 35 -35v-674q0 -51 53 -73q16 -6 33 -6q63 0 107 59q23 31 32 90l5 430q-2 14 -4.5 29.5t-16.5 19.5t-31.5 8.5t-22.5 16.5t-5 106q6 29 34 33q160 2 328 -2q29 -2 36 -25.5t9 -125.5q-6 -217 -2 -639q6 -20 23 -25 q12 -2 33.5 11.5t33.5 13.5t25 -13q25 -18 33 -49q-6 -78 -125 -133q-45 -20 -103 -20q-74 0 -131 32q-8 2 -53 41q-33 25 -61 19q-170 -94 -293 -94q-74 0 -136 32q-121 61 -127 203q-2 72 -2 592q-10 12 -39.5 18t-35.5 25zM287 1274q2 35 26.5 60.5t57.5 25.5 q40 0 112 -68l164 -155q20 -27 15 -45q0 -25 -23 -39q-14 -12 -68 4q-98 47 -235 123q-55 29 -49 94z" />
<glyph unicode="&#xfa;" horiz-adv-x="1136" d="M29 850q-10 70 6 117q10 18 53 20l309 -2q29 -6 35 -35v-674q0 -51 53 -73q16 -6 33 -6q63 0 107 59q23 31 32 90l5 430q-2 14 -4.5 29.5t-16.5 19.5t-31.5 8.5t-22.5 16.5t-5 106q6 29 34 33q160 2 328 -2q29 -2 36 -25.5t9 -125.5q-6 -217 -2 -639q6 -20 23 -25 q12 -2 33.5 11.5t33.5 13.5t25 -13q25 -18 33 -49q-6 -78 -125 -133q-45 -20 -103 -20q-74 0 -131 32q-8 2 -53 41q-33 25 -61 19q-170 -94 -293 -94q-74 0 -136 32q-121 61 -127 203q-2 72 -2 592q-10 12 -39.5 18t-35.5 25zM346 1096l16 32l216 201q53 37 102 12 q25 -10 41 -41q31 -53 -10 -100q-20 -25 -99 -63l-180 -90q-35 -16 -59 0q-27 16 -27 49z" />
<glyph unicode="&#xfb;" horiz-adv-x="1136" d="M29 850q-10 70 6 117q10 18 53 20l309 -2q29 -6 35 -35v-674q0 -51 53 -73q16 -6 33 -6q63 0 107 59q23 31 32 90l5 430q-2 14 -4.5 29.5t-16.5 19.5t-31.5 8.5t-22.5 16.5t-5 106q6 29 34 33q160 2 328 -2q29 -2 36 -25.5t9 -125.5q-6 -217 -2 -639q6 -20 23 -25 q12 -2 33.5 11.5t33.5 13.5t25 -13q25 -18 33 -49q-6 -78 -125 -133q-45 -20 -103 -20q-74 0 -131 32q-8 2 -53 41q-33 25 -61 19q-170 -94 -293 -94q-74 0 -136 32q-121 61 -127 203q-2 72 -2 592q-10 12 -39.5 18t-35.5 25zM281 1069l6 27q98 115 231 213q12 8 27 8 q18 0 86 -55q47 -41 92 -80q55 -49 80 -88q10 -29 0 -45q-14 -20 -45 -15q-68 35 -211 86q-39 -6 -90 -28q-78 -37 -86 -41q-55 -20 -72 -13q-18 8 -18 31z" />
<glyph unicode="&#xfc;" horiz-adv-x="1136" d="M29 850q-10 70 6 117q10 18 53 20l309 -2q29 -6 35 -35v-674q0 -51 53 -73q16 -6 33 -6q63 0 107 59q23 31 32 90l5 430q-2 14 -4.5 29.5t-16.5 19.5t-31.5 8.5t-22.5 16.5t-5 106q6 29 34 33q160 2 328 -2q29 -2 36 -25.5t9 -125.5q-6 -217 -2 -639q6 -20 23 -25 q12 -2 33.5 11.5t33.5 13.5t25 -13q25 -18 33 -49q-6 -78 -125 -133q-45 -20 -103 -20q-74 0 -131 32q-8 2 -53 41q-33 25 -61 19q-170 -94 -293 -94q-74 0 -136 32q-121 61 -127 203q-2 72 -2 592q-10 12 -39.5 18t-35.5 25zM225 1192q0 -45 32 -76t75 -31q45 0 75.5 31 t30.5 76t-30.5 75.5t-75.5 30.5q-43 0 -75 -30.5t-32 -75.5zM655 1192q0 -45 31 -76t76 -31t75.5 31t30.5 76t-30.5 75.5t-75.5 30.5t-76 -30.5t-31 -75.5z" />
<glyph unicode="&#x2000;" horiz-adv-x="792" />
<glyph unicode="&#x2001;" horiz-adv-x="1585" />
<glyph unicode="&#x2002;" horiz-adv-x="792" />
<glyph unicode="&#x2003;" horiz-adv-x="1585" />
<glyph unicode="&#x2004;" horiz-adv-x="528" />
<glyph unicode="&#x2005;" horiz-adv-x="396" />
<glyph unicode="&#x2006;" horiz-adv-x="264" />
<glyph unicode="&#x2007;" horiz-adv-x="264" />
<glyph unicode="&#x2008;" horiz-adv-x="198" />
<glyph unicode="&#x2009;" horiz-adv-x="317" />
<glyph unicode="&#x200a;" horiz-adv-x="88" />
<glyph unicode="&#x2010;" horiz-adv-x="808" d="M70 461q10 -20 32 -25h582l27 6q31 16 32 62v76q-6 49 -53 49h-312.5t-279.5 0q-26 0 -28 -33q-6 -100 0 -135z" />
<glyph unicode="&#x2011;" horiz-adv-x="808" d="M70 461q10 -20 32 -25h582l27 6q31 16 32 62v76q-6 49 -53 49h-312.5t-279.5 0q-26 0 -28 -33q-6 -100 0 -135z" />
<glyph unicode="&#x2012;" horiz-adv-x="808" d="M70 461q10 -20 32 -25h582l27 6q31 16 32 62v76q-6 49 -53 49h-312.5t-279.5 0q-26 0 -28 -33q-6 -100 0 -135z" />
<glyph unicode="&#x2013;" horiz-adv-x="1087" d="M70 461q10 -20 32 -25h848l27 6q31 16 33 62v76q-6 49 -54 49h-445.5t-412.5 0q-26 0 -28 -33q-6 -100 0 -135z" />
<glyph unicode="&#x2014;" horiz-adv-x="1474" d="M70 461q10 -20 32 -25h1258l26 6q31 16 33 62v76q-6 49 -53 49h-650.5t-617.5 0q-26 0 -28 -33q-6 -100 0 -135z" />
<glyph unicode="&#x2018;" horiz-adv-x="468" d="M70 1333q0 -74 48 -125t113 -51q68 0 113 47t45 115q0 61 -49 94t-49 45q0 20 35.5 35.5t35.5 26.5q10 66 -59 65q-68 0 -131 -41q-102 -66 -102 -211z" />
<glyph unicode="&#x2019;" horiz-adv-x="493" d="M90 1317q0 -63 50 -96t50 -43q0 -20 -35.5 -37t-35.5 -27q-10 -66 59 -65q68 0 131 41q102 66 103 210q0 76 -48.5 126.5t-115.5 50.5q-66 0 -112 -46.5t-46 -113.5z" />
<glyph unicode="&#x201c;" horiz-adv-x="901" d="M70 1333q0 -74 48 -125t113 -51q68 0 113 47t45 115q0 61 -49 94t-49 45q0 20 35.5 35.5t35.5 26.5q10 66 -59 65q-68 0 -131 -41q-102 -66 -102 -211zM508 1333q0 -74 48 -125t114 -51q68 0 112.5 47t44.5 115q0 61 -49 94t-49 45q0 20 35 35.5t37 26.5q8 66 -62 65 q-66 0 -129 -41q-102 -66 -102 -211z" />
<glyph unicode="&#x201d;" horiz-adv-x="946" d="M90 1317q0 -63 50 -96t50 -43q0 -20 -35.5 -37t-35.5 -27q-10 -66 59 -65q68 0 131 41q102 66 103 210q0 76 -48.5 126.5t-115.5 50.5q-66 0 -112 -46.5t-46 -113.5zM528 1317q0 -63 50.5 -96t50.5 -43q0 -20 -36 -37t-38 -27q-8 -66 61 -65q66 0 129 41q104 66 105 210 q0 76 -48 126.5t-116 50.5q-66 0 -112 -46.5t-46 -113.5z" />
<glyph unicode="&#x202f;" horiz-adv-x="317" />
<glyph unicode="&#x205f;" horiz-adv-x="396" />
<glyph unicode="&#x25fc;" horiz-adv-x="983" d="M0 0v983h983v-983h-983z" />
</font>
</defs>
</svg>
