<?xml version="1.0" encoding="utf-8"?>
<!-- Generator: Adobe Illustrator 24.1.1, SVG Export Plug-In . SVG Version: 6.00 Build 0)  -->
<svg version="1.1" xmlns="http://www.w3.org/2000/svg" xmlns:xlink="http://www.w3.org/1999/xlink" x="0px" y="0px"
	 viewBox="0 0 47.29 83.76" style="enable-background:new 0 0 47.29 83.76;" xml:space="preserve">
<style type="text/css">
	.st0{opacity:0;fill-rule:evenodd;clip-rule:evenodd;}
	.st1{fill-rule:evenodd;clip-rule:evenodd;fill:none;stroke:#FFFFFF;stroke-width:0.5669;stroke-miterlimit:22.9256;}
	.st2{fill-rule:evenodd;clip-rule:evenodd;fill:#A41E22;}
</style>
<g id="Fondo">
	<rect class="st0" width="47.29" height="83.76"/>
</g>
<g id="Logo">
	<rect x="-151.16" y="545.78" class="st1" width="375.83" height="26.62"/>
	<path class="st2" d="M28.91,17.27c2.04-1.75-8.47-1.9-4.95,7.94c0.3,0.84,3.25,3.88,6.28,4.08c9.1,0.59,14.2-3.61,15.8-9.01
		C51.43,2.16,24.37-6.58,13.03,8.13c-8.3,10.76-4.7,21.51,3.82,31.1c1.83,2.06,3.78,3.94,5.73,5.76c2.06,1.92,4.41,3.78,6.35,5.7
		c1.68,1.65,5.67,4.44,9.29,8.05c1.64,1.64,3.37,3.38,4.47,5.38c3.24,5.88,3.85,14.94-6,17.28c-8.14,1.93-9.73-5.83-7.21-7.81
		c0.26-0.21,0.93-0.7,1.7-0.75c0.83-0.06,1.77,0.34,1.96,0.69c0.15,0.27,0.7,1.11,0.36,1.39c-0.13,0.11-0.29,0.41-0.57,0.43
		c-0.46,0.03-1.07-0.51-1.06-0.25c0.14,2.03,3.34,1.49,3.34,1.49c0.1,0.41-0.89,1.2-0.56,1.15c4.35-0.71,3.19-4.78,2.09-5.84
		c-0.56-0.54-1.49-0.5-2.01-0.84c-0.56-0.37,0.43-1.17-0.04-1.37c-1.33-0.55-3.9,0.11-5.14,0.96c-1.59,1.09-3.57,3.06-3.03,6.65
		c0.49,3.34,2.67,6.32,8.48,5.9c2.53-0.18,5.15-0.96,7.1-2.44c2.45-1.86,3.95-4.6,4.31-6.19c1.48-6.63-3.02-13.63-7.89-18.53
		c-6.13-6.16-11.6-10.42-16.95-17.23c-4.79-6.1-8.84-13.06-8.07-16.28c0.35-1.48,1.22-2.84,2.5-3.79c1.32-0.97,2.84-1.55,3.49-2.07
		c0.31-0.25,0.01-0.61-0.1-0.75c-0.17-0.23-0.83-0.3-2.22,0.28c-1.28,0.54-1.79,1.3-1.93,1.18c-0.45-0.42,2.25-3.03,4.87-4.91
		c1.4-1,3.65-1.25,4.66-1.74c0.83-0.4,0.64-1.07,0.52-1.43c-0.38-1.11-1.77-0.92-2.52-0.7c-2.25,0.65-5.4,2.85-7.71,5.94
		c-1.31,1.76-1.59,3.95-1.87,3.98c-1.07,0.13-0.02-5.48,3.43-9.9c1.28-1.64,3.1-2.95,4.98-3.99C27.61,1.33,36.5,1.3,42.42,8.68
		c5.25,6.53,2.56,17.82-6.75,17.66c-4.04-0.07-3.92-1.59-3.74-5.46c0.01-0.26-0.37-0.38-0.88,0.19c-0.54,0.6-0.86,1.85-1.55,2.17
		c-2.45,1.16-3.25-3.06-2.24-4.55C27.61,18.17,28.27,17.83,28.91,17.27z"/>
	<path class="st2" d="M38.88,66.9c6.16,2.81,3.22,13.06-3.18,13.56c-3.65,0.28-5.33-2.74-4.83-3.21c0.2-0.19,1.7,1.76,3.7,2.07
		c2.95,0.46,5.33-1.61,3.97-7.28c-0.4-1.64-2.05-2.54-2.05-3.5C36.49,67.73,37.56,66.3,38.88,66.9z"/>
	<path class="st2" d="M36.06,63.97c-2.42-1.41-10.51-1.81-17.43,0.61c-4.51,1.58-8.5,4.45-10.42,8.52
		c-1.38,2.92,1.73,5.65,3.92,2.84c1.41-1.81,3-5.04,5.57-7.19c0.7-0.59,2.74-1.96,4.57-2.75c2.47-1.07,4.68-1.47,3.83-0.95
		c-1.73,1.05-3.52,2.1-4.09,3.58c-0.42,1.08-0.24,3.09,1.42,2c0.95-0.63,1.76-2.76,3.79-4.52C29.18,64.41,36.17,64.03,36.06,63.97z"
		/>
	<path class="st2" d="M6.39,55.41c0.64-0.76,1.1-1.99,1.77-2.45c0.32-0.22,1.75-0.46,2.62,0.24c0.74,0.6,0.64,1.98,0.99,3.02
		c0.35,1.02,1.9-2.29,2.96-3c4.91-3.32,12.02,0.58,8.82,3.01c-0.31,0.24-2.81,0.07-3.74-0.26c-0.4-0.14-0.13,1.19,0.73,2.39
		c1.81,2.53,8.07,1.96,11.13,2.22c6.06,0.5,11.62,8.1,11.06,7.14c-6.64-11.44-22.91-22.1-31.96-19.2
		C5.83,50.1,5.93,55.95,6.39,55.41z"/>
	<path class="st2" d="M19.96,45.11c-1.98-1.42-5.48-3.27-7.94-5.37c-4.44-3.8-7.83-8.41-9.28-12.72C-4.56,5.22,11.53,3.05,7.39,14.4
		c-3.05,8.36,0.98,16.76,5.33,22.95C16.17,42.24,20.14,45.23,19.96,45.11z"/>
	<path class="st2" d="M53.98,8.76"/>
	<path class="st2" d="M80.57,101.8"/>
</g>
</svg>
