<?xml version="1.0" encoding="utf-8"?>
<!-- Generator: Adobe Illustrator 24.1.1, SVG Export Plug-In . SVG Version: 6.00 Build 0)  -->
<svg version="1.1" xmlns="http://www.w3.org/2000/svg" xmlns:xlink="http://www.w3.org/1999/xlink" x="0px" y="0px"
	 viewBox="0 0 48.94 87.18" style="enable-background:new 0 0 48.94 87.18;" xml:space="preserve">
<style type="text/css">
	.st0{opacity:0;fill-rule:evenodd;clip-rule:evenodd;}
	.st1{fill-rule:evenodd;clip-rule:evenodd;fill:none;stroke:#FFFFFF;stroke-width:0.5669;stroke-miterlimit:22.9256;}
	.st2{fill-rule:evenodd;clip-rule:evenodd;fill:#A41E22;}
</style>
<g id="Fondo">
	<rect class="st0" width="48.94" height="87.18"/>
</g>
<g id="Logo">
	<rect x="-154.81" y="543.9" class="st1" width="375.83" height="26.62"/>
	<path class="st2" d="M19.27,17.97c-2.12-1.82,8.8-1.97,5.14,8.25c-0.31,0.87-3.38,4.04-6.52,4.24C8.43,31.07,3.13,26.71,1.47,21.1
		C-4.14,2.26,23.99-6.81,35.77,8.47c8.62,11.18,4.88,22.35-3.97,32.32c-1.9,2.15-3.93,4.1-5.96,5.99c-2.14,1.99-4.58,3.93-6.6,5.93
		c-1.74,1.72-5.89,4.61-9.65,8.37c-1.7,1.7-3.51,3.51-4.65,5.59c-3.36,6.11-4,15.52,6.24,17.95c8.46,2.01,10.11-6.06,7.49-8.12
		c-0.27-0.21-0.97-0.73-1.77-0.78c-0.87-0.06-1.84,0.35-2.03,0.71c-0.15,0.28-0.73,1.15-0.38,1.45c0.14,0.12,0.3,0.42,0.59,0.44
		c0.48,0.03,1.12-0.53,1.1-0.26c-0.14,2.11-3.47,1.54-3.47,1.55c-0.11,0.43,0.92,1.25,0.58,1.2c-4.52-0.74-3.31-4.97-2.17-6.07
		c0.58-0.56,1.54-0.52,2.09-0.88c0.58-0.39-0.45-1.22,0.04-1.42c1.38-0.57,4.05,0.12,5.34,1c1.66,1.13,3.71,3.18,3.15,6.92
		c-0.51,3.47-2.78,6.56-8.81,6.13c-2.62-0.19-5.35-0.99-7.38-2.53c-2.54-1.93-4.11-4.78-4.48-6.43c-1.54-6.89,3.13-14.16,8.2-19.25
		c6.38-6.4,12.06-10.83,17.61-17.91c4.97-6.34,9.18-13.57,8.39-16.92c-0.36-1.53-1.27-2.95-2.6-3.94c-1.37-1.01-2.95-1.61-3.63-2.15
		c-0.32-0.26-0.01-0.63,0.1-0.78c0.17-0.24,0.86-0.32,2.3,0.29c1.33,0.56,1.86,1.35,2,1.22c0.47-0.43-2.34-3.15-5.06-5.11
		c-1.45-1.04-3.79-1.3-4.84-1.81c-0.86-0.42-0.66-1.11-0.54-1.49c0.39-1.16,1.84-0.95,2.62-0.73c2.33,0.68,5.61,2.96,8.01,6.17
		c1.36,1.83,1.65,4.1,1.94,4.14c1.11,0.13,0.02-5.69-3.56-10.29c-1.33-1.71-3.22-3.07-5.17-4.15C20.62,1.4,11.38,1.37,5.23,9.03
		c-5.45,6.79-2.66,18.52,7.01,18.35c4.19-0.07,4.07-1.66,3.89-5.68c-0.01-0.27,0.39-0.39,0.91,0.2c0.56,0.63,0.9,1.92,1.61,2.26
		c2.55,1.2,3.38-3.18,2.33-4.73C20.62,18.9,19.94,18.54,19.27,17.97z"/>
	<path class="st2" d="M8.9,69.54c-6.4,2.92-3.34,13.57,3.31,14.09c3.79,0.29,5.54-2.85,5.02-3.33c-0.21-0.2-1.77,1.83-3.85,2.15
		c-3.07,0.48-5.54-1.67-4.12-7.57c0.41-1.71,2.13-2.64,2.13-3.63C11.39,70.4,10.28,68.91,8.9,69.54z"/>
	<path class="st2" d="M11.84,66.49c2.52-1.46,10.92-1.89,18.11,0.64c4.69,1.65,8.83,4.63,10.82,8.86c1.43,3.03-1.8,5.87-4.07,2.95
		c-1.47-1.89-3.12-5.24-5.78-7.48c-0.73-0.61-2.84-2.03-4.75-2.86c-2.56-1.11-4.86-1.52-3.98-0.99c1.79,1.09,3.66,2.18,4.25,3.72
		c0.43,1.13,0.25,3.22-1.47,2.08c-0.99-0.65-1.83-2.87-3.94-4.69C18.99,66.95,11.73,66.56,11.84,66.49z"/>
	<path class="st2" d="M42.67,57.6c-0.67-0.79-1.15-2.07-1.84-2.54c-0.33-0.22-1.81-0.48-2.72,0.25c-0.77,0.63-0.67,2.06-1.03,3.13
		c-0.36,1.06-1.98-2.38-3.08-3.12c-5.1-3.45-12.49,0.6-9.17,3.13c0.33,0.25,2.92,0.07,3.89-0.27c0.41-0.14,0.13,1.24-0.76,2.48
		c-1.88,2.63-8.39,2.04-11.57,2.3c-6.3,0.52-12.08,8.42-11.49,7.42c6.9-11.89,23.81-22.96,33.21-19.95
		C43.25,52.08,43.15,58.16,42.67,57.6z"/>
	<path class="st2" d="M28.56,46.89c2.05-1.47,5.69-3.4,8.25-5.58c4.62-3.95,8.14-8.74,9.64-13.22c7.6-22.65-9.12-24.91-4.82-13.11
		c3.17,8.69-1.02,17.41-5.54,23.85C32.51,43.92,28.38,47.02,28.56,46.89z"/>
</g>
</svg>
