<?xml version="1.0" encoding="utf-8"?>
<!-- Generator: Adobe Illustrator 24.1.1, SVG Export Plug-In . SVG Version: 6.00 Build 0)  -->
<svg version="1.1" id="Capa_1" xmlns="http://www.w3.org/2000/svg" xmlns:xlink="http://www.w3.org/1999/xlink" x="0px" y="0px"
	 viewBox="0 0 285 405" style="enable-background:new 0 0 285 405;" xml:space="preserve">
<style type="text/css">
	.st0{fill-rule:evenodd;clip-rule:evenodd;fill:#000002;}
	.st1{fill-rule:evenodd;clip-rule:evenodd;}
</style>
<path class="st0" d="M245.56,110.18c-2.12-1.82,8.8-1.97,5.14,8.26c-0.31,0.87-3.38,4.04-6.52,4.24
	c-9.45,0.61-14.75-3.75-16.42-9.36c-5.6-18.84,22.52-27.92,34.31-12.63c8.62,11.18,4.88,22.35-3.97,32.32
	c-1.9,2.15-3.93,4.1-5.96,5.99c-2.14,1.99-4.58,3.93-6.6,5.93c-1.74,1.72-5.89,4.61-9.65,8.37c-1.7,1.7-3.51,3.51-4.65,5.59
	c-3.36,6.11-4,15.52,6.24,17.95c8.46,2.01,10.11-6.06,7.49-8.12c-0.27-0.21-0.97-0.73-1.77-0.78c-0.87-0.06-1.84,0.35-2.03,0.71
	c-0.15,0.28-0.73,1.15-0.38,1.45c0.14,0.12,0.3,0.42,0.59,0.44c0.48,0.03,1.12-0.53,1.1-0.26c-0.14,2.11-3.47,1.54-3.47,1.55
	c-0.11,0.43,0.92,1.25,0.58,1.2c-4.52-0.74-3.31-4.97-2.17-6.07c0.58-0.56,1.54-0.52,2.09-0.88c0.58-0.39-0.45-1.22,0.04-1.42
	c1.38-0.57,4.05,0.12,5.34,1c1.66,1.13,3.71,3.18,3.15,6.92c-0.51,3.47-2.78,6.56-8.81,6.13c-2.62-0.19-5.35-0.99-7.38-2.53
	c-2.54-1.93-4.11-4.78-4.48-6.43c-1.54-6.89,3.13-14.16,8.2-19.25c6.38-6.4,12.06-10.83,17.61-17.91
	c4.97-6.34,9.18-13.57,8.39-16.92c-0.36-1.53-1.27-2.95-2.6-3.94c-1.37-1.01-2.95-1.61-3.63-2.15c-0.32-0.26-0.01-0.63,0.1-0.78
	c0.17-0.24,0.86-0.32,2.3,0.29c1.33,0.56,1.86,1.35,2,1.22c0.47-0.43-2.34-3.15-5.06-5.1c-1.45-1.04-3.79-1.3-4.84-1.81
	c-0.86-0.42-0.66-1.11-0.54-1.49c0.39-1.16,1.84-0.95,2.62-0.73c2.33,0.68,5.61,2.96,8.01,6.17c1.36,1.83,1.65,4.1,1.94,4.14
	c1.11,0.13,0.02-5.69-3.56-10.29c-1.33-1.71-3.22-3.07-5.17-4.15c-6.24-3.45-15.48-3.47-21.63,4.19
	c-5.45,6.79-2.66,18.52,7.01,18.35c4.19-0.07,4.07-1.66,3.89-5.68c-0.01-0.27,0.39-0.39,0.91,0.2c0.56,0.63,0.9,1.92,1.61,2.26
	c2.55,1.2,3.38-3.18,2.33-4.73C246.91,111.11,246.23,110.75,245.56,110.18z"/>
<path class="st0" d="M235.2,161.75c-6.4,2.92-3.34,13.57,3.31,14.09c3.79,0.29,5.54-2.85,5.02-3.33c-0.21-0.2-1.77,1.83-3.85,2.15
	c-3.07,0.48-5.54-1.67-4.12-7.57c0.41-1.71,2.13-2.64,2.13-3.63C237.68,162.61,236.57,161.12,235.2,161.75z"/>
<path class="st0" d="M238.14,158.7c2.52-1.46,10.92-1.89,18.11,0.64c4.69,1.65,8.83,4.63,10.82,8.86c1.43,3.03-1.8,5.87-4.07,2.95
	c-1.47-1.89-3.11-5.24-5.79-7.48c-0.73-0.61-2.84-2.03-4.75-2.86c-2.56-1.11-4.86-1.52-3.98-0.99c1.79,1.09,3.66,2.18,4.25,3.72
	c0.43,1.13,0.25,3.22-1.47,2.08c-0.99-0.65-1.83-2.87-3.94-4.69C245.28,159.16,238.02,158.77,238.14,158.7z"/>
<path class="st0" d="M268.97,149.81c-0.67-0.79-1.15-2.07-1.84-2.54c-0.33-0.22-1.81-0.48-2.72,0.25c-0.77,0.63-0.67,2.06-1.03,3.13
	c-0.36,1.06-1.98-2.38-3.08-3.12c-5.1-3.45-12.49,0.6-9.17,3.13c0.33,0.25,2.92,0.07,3.89-0.27c0.41-0.14,0.13,1.24-0.76,2.48
	c-1.88,2.63-8.39,2.04-11.57,2.3c-6.3,0.52-12.08,8.42-11.49,7.42c6.9-11.89,23.81-22.96,33.21-19.95
	C269.54,144.29,269.44,150.37,268.97,149.81z"/>
<path class="st0" d="M254.86,139.1c2.05-1.47,5.69-3.4,8.25-5.58c4.62-3.95,8.14-8.74,9.64-13.22c7.6-22.65-9.12-24.91-4.82-13.11
	c3.17,8.69-1.02,17.41-5.54,23.85C258.8,136.13,254.68,139.23,254.86,139.1z"/>
<path class="st0" d="M40.84,112.07c2.04-1.75-8.47-1.9-4.95,7.94c0.3,0.84,3.25,3.88,6.28,4.08c9.1,0.59,14.2-3.61,15.8-9.01
	c5.39-18.13-21.68-26.86-33.02-12.15c-8.3,10.76-4.7,21.51,3.82,31.1c1.83,2.07,3.78,3.94,5.73,5.76c2.06,1.92,4.41,3.78,6.35,5.7
	c1.68,1.65,5.67,4.44,9.29,8.05c1.64,1.64,3.37,3.38,4.47,5.38c3.24,5.88,3.85,14.94-6,17.28c-8.14,1.93-9.73-5.83-7.21-7.81
	c0.26-0.21,0.93-0.7,1.7-0.75c0.83-0.06,1.77,0.34,1.96,0.69c0.15,0.27,0.7,1.11,0.36,1.39c-0.13,0.11-0.29,0.41-0.57,0.43
	c-0.46,0.03-1.07-0.51-1.06-0.25c0.14,2.03,3.34,1.49,3.34,1.49c0.1,0.41-0.89,1.2-0.56,1.15c4.35-0.71,3.19-4.78,2.09-5.84
	c-0.56-0.54-1.49-0.5-2.01-0.84c-0.56-0.37,0.43-1.17-0.04-1.37c-1.33-0.55-3.9,0.11-5.14,0.96c-1.59,1.09-3.57,3.06-3.03,6.65
	c0.49,3.34,2.67,6.32,8.48,5.9c2.53-0.18,5.15-0.96,7.1-2.44c2.45-1.86,3.95-4.6,4.31-6.19c1.48-6.63-3.02-13.63-7.89-18.52
	c-6.13-6.16-11.6-10.42-16.95-17.23c-4.79-6.1-8.84-13.06-8.07-16.28c0.35-1.48,1.22-2.84,2.5-3.79c1.32-0.97,2.84-1.55,3.49-2.07
	c0.31-0.25,0.01-0.61-0.1-0.75c-0.17-0.23-0.83-0.3-2.22,0.28c-1.28,0.54-1.79,1.3-1.93,1.18c-0.45-0.42,2.25-3.03,4.87-4.91
	c1.4-1,3.65-1.25,4.66-1.74c0.83-0.4,0.64-1.07,0.52-1.43c-0.38-1.11-1.77-0.92-2.52-0.7c-2.25,0.65-5.4,2.85-7.71,5.94
	c-1.31,1.76-1.59,3.95-1.87,3.98c-1.07,0.13-0.02-5.48,3.43-9.9c1.28-1.64,3.1-2.95,4.98-3.99c6.01-3.32,14.89-3.34,20.82,4.03
	c5.25,6.53,2.56,17.82-6.75,17.66c-4.04-0.07-3.92-1.59-3.74-5.46c0.01-0.26-0.37-0.38-0.88,0.19c-0.54,0.6-0.86,1.85-1.55,2.17
	c-2.45,1.16-3.25-3.06-2.24-4.55C39.54,112.96,40.2,112.62,40.84,112.07z"/>
<path class="st0" d="M50.81,161.7c6.16,2.81,3.22,13.06-3.18,13.56c-3.65,0.28-5.33-2.74-4.83-3.21c0.2-0.19,1.7,1.76,3.7,2.07
	c2.95,0.46,5.33-1.61,3.97-7.28c-0.4-1.64-2.05-2.54-2.05-3.5C48.42,162.53,49.49,161.09,50.81,161.7z"/>
<path class="st0" d="M47.99,158.76c-2.42-1.41-10.51-1.81-17.43,0.61c-4.51,1.58-8.5,4.45-10.42,8.52
	c-1.38,2.92,1.73,5.65,3.92,2.84c1.41-1.81,3-5.04,5.57-7.19c0.7-0.59,2.74-1.96,4.57-2.75c2.47-1.07,4.68-1.47,3.83-0.95
	c-1.73,1.05-3.52,2.1-4.09,3.58c-0.42,1.08-0.24,3.09,1.42,2c0.95-0.63,1.76-2.76,3.79-4.52C41.11,159.21,48.1,158.83,47.99,158.76z
	"/>
<path class="st0" d="M18.32,150.2c0.64-0.76,1.1-1.99,1.77-2.45c0.32-0.22,1.75-0.46,2.62,0.24c0.74,0.6,0.64,1.98,0.99,3.01
	c0.35,1.02,1.9-2.29,2.96-3c4.91-3.32,12.02,0.58,8.82,3.01c-0.31,0.24-2.81,0.07-3.74-0.26c-0.4-0.14-0.13,1.19,0.73,2.39
	c1.81,2.53,8.07,1.96,11.13,2.22c6.06,0.5,11.62,8.1,11.06,7.14c-6.64-11.44-22.91-22.1-31.96-19.2
	C17.76,144.89,17.86,150.74,18.32,150.2z"/>
<path class="st0" d="M31.89,139.9c-1.98-1.42-5.48-3.27-7.94-5.37c-4.44-3.8-7.83-8.41-9.28-12.72c-7.32-21.8,8.78-23.97,4.64-12.62
	c-3.05,8.36,0.98,16.76,5.33,22.95C28.1,137.04,32.07,140.03,31.89,139.9z"/>
<g>
	<path class="st0" d="M134.02,232.5c6.17-2.18,10.93,6.58,6.79,11.12c-2.36,2.59-5.54,1.68-5.5,1.04c0.02-0.26,2.36,0.05,3.96-1.05
		c2.37-1.64,2.65-4.58-2.07-7.46c-1.37-0.83-3.12-0.35-3.75-0.98C132.91,234.63,132.7,232.97,134.02,232.5z"/>
	<path class="st0" d="M130.19,232.19c-1.93,0.48-6.27,4.19-8.63,8.72c-1.54,2.96-2.18,6.28-1.18,9.2c0.72,2.09,3.65,1.93,3.4-0.5
		c-0.16-1.57-0.93-3.92-0.66-6.21c0.07-0.63,0.45-2.28,1-3.56c0.74-1.71,1.68-2.98,1.5-2.32c-0.37,1.35-0.78,2.73-0.35,3.73
		c0.32,0.73,1.39,1.63,1.7,0.29c0.18-0.77-0.44-2.2-0.26-4.04C126.88,235.73,130.28,232.17,130.19,232.19z"/>
	<path class="st0" d="M103.71,246.22c-0.06-0.93-0.56-2.05-0.39-2.79c0.08-0.35,0.91-1.46,1.99-1.56c0.92-0.09,1.77,0.9,2.7,1.35
		c0.92,0.45-0.19-2.78,0.07-3.95c1.22-5.44,8.77-7.52,8.16-3.79c-0.06,0.36-1.92,1.89-2.78,2.29c-0.37,0.17,0.7,0.88,2.1,1.11
		c2.95,0.49,6.94-4,9.24-5.84c4.56-3.65,13.49-2.25,12.46-2.52c-12.24-3.25-30.67,0.35-35.06,8.23
		C99.79,243.04,103.75,246.88,103.71,246.22z"/>
	<path class="st0" d="M152.25,232.65c-6.16-2.18-10.93,6.58-6.79,11.12c2.36,2.59,5.54,1.68,5.5,1.04
		c-0.02-0.26-2.36,0.05-3.96-1.05c-2.37-1.64-2.65-4.58,2.07-7.46c1.37-0.83,3.12-0.35,3.75-0.98
		C153.36,234.78,153.57,233.12,152.25,232.65z"/>
	<path class="st0" d="M156.08,232.34c1.93,0.48,6.27,4.19,8.63,8.72c1.54,2.96,2.18,6.28,1.18,9.2c-0.72,2.09-3.65,1.93-3.4-0.5
		c0.16-1.57,0.93-3.92,0.66-6.21c-0.07-0.63-0.45-2.28-1-3.56c-0.74-1.71-1.68-2.98-1.5-2.32c0.37,1.35,0.78,2.73,0.35,3.73
		c-0.32,0.73-1.39,1.63-1.7,0.29c-0.18-0.77,0.44-2.2,0.26-4.04C159.39,235.88,155.99,232.32,156.08,232.34z"/>
	<path class="st0" d="M182.56,246.37c0.06-0.93,0.56-2.05,0.39-2.79c-0.08-0.35-0.91-1.46-1.99-1.56c-0.92-0.09-1.77,0.9-2.7,1.35
		c-0.92,0.45,0.19-2.78-0.07-3.95c-1.22-5.44-8.77-7.52-8.16-3.79c0.06,0.36,1.91,1.89,2.78,2.29c0.37,0.17-0.7,0.88-2.1,1.11
		c-2.95,0.49-6.94-4-9.24-5.84c-4.56-3.65-13.49-2.25-12.46-2.52c12.24-3.25,30.67,0.35,35.06,8.23
		C186.48,243.2,182.52,247.03,182.56,246.37z"/>
	<path class="st1" d="M143.52,267.02L143.52,267.02c1.19,0,2.54-1.37,2.17-2.87c-3.87-15.71-1.08-17.69-4.33,0
		C141.07,265.69,142.33,267.02,143.52,267.02z"/>
	<path class="st1" d="M152.21,260.72L152.21,260.72c0.71-0.46,0.95-1.79,0.12-2.54c-8.69-7.83-7.84-10.08-2.57,1.67
		C150.21,260.87,151.5,261.18,152.21,260.72z"/>
	<path class="st1" d="M135.37,260.66L135.37,260.66c-0.71-0.46-0.95-1.79-0.12-2.54c8.69-7.83,7.84-10.08,2.57,1.67
		C137.36,260.8,136.07,261.11,135.37,260.66z"/>
	<path class="st1" d="M154.57,252.79L154.57,252.79c0.19-0.46-0.14-1.19-0.81-1.3c-6.99-1.09-7.33-2.48-0.71,1.66
		C153.63,253.5,154.37,253.24,154.57,252.79z"/>
	<path class="st1" d="M133.01,252.72L133.01,252.72c-0.2-0.46,0.14-1.19,0.81-1.3c6.99-1.09,7.33-2.48,0.71,1.66
		C133.95,253.44,133.2,253.18,133.01,252.72z"/>
	<path class="st1" d="M143.06,249.61c1.23,0,2.24-0.98,2.24-2.18c0-1.2-1.01-2.18-2.24-2.18c-1.23,0-2.24,0.98-2.24,2.18
		C140.82,248.63,141.82,249.61,143.06,249.61z"/>
</g>
<path class="st1" d="M140.68,47.64c-4.03,7.15-11.94,10.13-19.03,3.82c-2.67-2.37-3.83-1.32-4.33-0.57
	c-0.43,0.65-0.88,1.79-1.58,1.33c-0.96-0.64-1.56-3.09,0.16-3.95c1.29-0.65,2.44,0.31,2.21-0.13c-0.15-0.28-1.67-1.71-3.27-2.96
	c-1.06-0.83-4.61-3.5-5.22-1.08c-1.8,7.06-7.37-9.61,6.26,0.68c2.45,1.85,2,0.66-0.92-1.75c-14.41-11.91-10.62,11.57-4.32,2.93
	c0.47-0.64,2.76,5.28-3.26,5.21c-4.52-0.06-2.29-6.24-5.36-5.57c-1.33,0.29-3.08,1.11-3.79,2.25c-0.56,0.89,0.05,2.83-0.88,3.24
	c-3.39,1.47-5.18-3.07,1.67-5.52c0.85-0.31,3.44-1.22,4.05-1.75c0.23-0.2,0.13-0.88-0.31-0.67c-20.79,9.96-23.48,2.18-20.68-1.99
	c1.91-2.85,7.53-2.24,3.98,1.4c-1.23,1.26-1.07,2,1.18,2.48c4.83,1.04,11.89-1.36,15.68-3.4c1.15-0.62,1.07-0.83,1.12-1.04
	c0.56-2.56-10.54,5.83-12.94,1.6c-0.73-1.29,0.69-2.41,1.73-2.29c0.85,0.09,1.17,0.64,2.03,1.01c0.77,0.33,2.39,0.39,4.15-0.11
	c2.8-0.81,6.44-2.25,8.45-2.64c4.63-0.91,12.18,9.35,11.72,7.96c-1.52-4.53-0.19-6.46-0.15-8.27c0.04-1.8-2.39-2.32-0.19-2.32
	c3.47-0.01,1.94,3.83,1.94,3.82c1.24-4.14,6.56-4.97,9.42-4.6c4.31,0.56,5.13,7.76,1.94,6.01c-0.22-0.12,0.62,1.59,0.23,2.57
	c-0.47,1.17-2.15,1.69-2.17,1.89c-0.46,0.37,0.59-2.06,0.49-4.01c-0.06-1.11-0.79-1.96-1.62-2.33c-2.85-1.26-7.76,1.14-8.26,4.05
	c-1.29,7.46,6.73,12.11,14.22,8.86C137,50.91,141.27,46.59,140.68,47.64z"/>
<path class="st1" d="M136.64,30.28c1.84-0.44,0.69,1.17,0.64,2.66c-0.06,1.94,1.19,4,0.89,4.99c-1.57-0.08-4.53-2.31-4.59-3.87
	c-0.1-2.27,0.73-2.59,2.75-3.64L136.64,30.28z"/>
<path class="st1" d="M117.6,43.39c-0.47-0.59-8.84-8.22-5.06-7.8c1.79,0.2,0.26,1.93,1.63,3.36
	C115.54,40.37,116.95,42.56,117.6,43.39z"/>
<path class="st1" d="M138.56,47.15c-4.45,2.52-12.71,6.39-12.18-4.05c0.05-1.07-3.84-1.5-4.29,1.05c-0.09,0.52-0.08,1.71,0.35,2.46
	C128.93,57.83,140.42,46.1,138.56,47.15z"/>
<path class="st1" d="M142.69,47.7c4.03,7.15,11.94,10.13,19.03,3.82c2.67-2.37,3.83-1.32,4.33-0.57c0.43,0.65,0.88,1.79,1.58,1.33
	c0.96-0.64,1.56-3.09-0.16-3.95c-1.29-0.65-2.44,0.31-2.21-0.13c0.15-0.28,1.67-1.71,3.27-2.96c1.06-0.83,4.61-3.5,5.22-1.08
	c1.8,7.06,7.37-9.61-6.26,0.68c-2.45,1.85-2,0.66,0.92-1.75c14.41-11.91,10.62,11.57,4.32,2.93c-0.47-0.64-2.76,5.28,3.26,5.21
	c4.52-0.06,2.3-6.24,5.36-5.57c1.33,0.29,3.08,1.11,3.79,2.25c0.56,0.89-0.05,2.83,0.88,3.24c3.39,1.47,5.18-3.07-1.67-5.52
	c-0.85-0.31-3.44-1.22-4.05-1.75c-0.23-0.2-0.13-0.88,0.31-0.67c20.79,9.96,23.48,2.18,20.68-1.99c-1.91-2.85-7.53-2.24-3.98,1.4
	c1.23,1.26,1.07,2-1.18,2.48c-4.83,1.04-11.89-1.36-15.68-3.4c-1.15-0.62-1.07-0.83-1.12-1.04c-0.56-2.56,10.54,5.83,12.94,1.6
	c0.73-1.29-0.69-2.41-1.73-2.3c-0.85,0.09-1.17,0.64-2.03,1.01c-0.77,0.33-2.39,0.39-4.15-0.11c-2.8-0.81-6.44-2.25-8.45-2.64
	c-4.63-0.91-12.18,9.35-11.72,7.96c1.52-4.53,0.19-6.46,0.15-8.27c-0.04-1.8,2.39-2.32,0.19-2.32c-3.47-0.01-1.94,3.83-1.94,3.82
	c-1.24-4.14-6.56-4.97-9.42-4.6c-4.31,0.56-5.13,7.76-1.94,6.01c0.22-0.12-0.62,1.59-0.23,2.57c0.47,1.17,2.15,1.69,2.17,1.89
	c0.46,0.37-0.59-2.06-0.49-4.01c0.06-1.11,0.79-1.96,1.62-2.33c2.85-1.26,7.76,1.14,8.26,4.05c1.29,7.46-6.73,12.11-14.22,8.86
	C146.38,50.97,142.1,46.65,142.69,47.7z"/>
<path class="st1" d="M146.73,30.34c-1.84-0.44-0.69,1.17-0.64,2.66c0.06,1.94-1.19,4-0.89,4.99c1.57-0.08,4.53-2.31,4.59-3.87
	c0.1-2.27-0.73-2.59-2.75-3.64L146.73,30.34z"/>
<path class="st1" d="M165.78,43.45c0.47-0.59,8.84-8.22,5.06-7.8c-1.79,0.2-0.26,1.93-1.63,3.36
	C167.84,40.43,166.43,42.62,165.78,43.45z"/>
<path class="st1" d="M144.82,47.21c4.45,2.52,12.71,6.39,12.19-4.05c-0.05-1.07,3.84-1.5,4.29,1.05c0.09,0.52,0.08,1.71-0.35,2.46
	C154.45,57.89,142.96,46.16,144.82,47.21z"/>
<path class="st1" d="M141.78,36.62c1.73,0,3.15-1.44,3.15-3.2c0-1.77-1.41-3.21-3.15-3.21c-1.73,0-3.15,1.44-3.15,3.21
	C138.63,35.18,140.05,36.62,141.78,36.62z"/>
<path class="st1" d="M142.03,29.16c1.38,0,2.5-1.14,2.5-2.55s-1.12-2.55-2.5-2.55c-1.38,0-2.5,1.14-2.5,2.55
	S140.66,29.16,142.03,29.16z"/>
<path class="st1" d="M141.7,23.44c0.77,0,1.39-0.64,1.39-1.42c0-0.78-0.63-1.42-1.39-1.42c-0.77,0-1.39,0.64-1.39,1.42
	C140.3,22.8,140.93,23.44,141.7,23.44z"/>
<path class="st1" d="M94.28,103.23c-8.55,3.91-10.65,9.77-7.32,16.86c-13.35-10.51-9.27-16.37-6.16-20.04
	c3.27-3.85,7.36-5.57,11.51-5.59c5.08-0.02,9.99,2.34,10.49,4.42c0.09,0.37-0.94,1-1.74,1.98c-0.78,0.95-1.12,2.15-1.5,2.01
	C98.25,102.36,94.85,102.96,94.28,103.23z"/>
<path class="st1" d="M75.85,154.67c0.34,0.13,7.34,7.32,7.25,7.8c-0.08,0.42-0.18,8.98-0.34,9.31c-0.19,0.4-2.14-0.76-3.58-2.02
	c-1.16-1.01-2.06-2.3-2.34-2.73c-0.55-0.85-1.15-1.5-1.34-2.22c-0.54-2.06,0.41-3.77,0.63-5.45c0.19-1.42,0.04-3.23-0.02-4.34
	C76.09,154.7,75.62,154.58,75.85,154.67z"/>
<path class="st1" d="M102.78,100.35c-4.84,3.83-3.32,6.46-0.13,8.63c4.97,3.39,15.2,2.89,10.66-8.17c-1.16-2.83-3.53-4.23-3.53-4.27
	c0.04-1.53,3.38-3.25,3.88-5.25c-2.96-2.49-2.82,4.1-9.87-0.16c-4.27-2.58-16.29-3.89-25.35,0.81c-2.14,1.11-13.85-3.72-6.53,3.72
	c0.97,0.99-3.46,3.49-6,7.9c-12.23,21.2,25.85,36.72,37.7,51.61c4.71,5.91-2.09,19.5-11.24,19.24c-3.62-0.1-11.69,0.93-15.94-4.66
	c-0.89-1.18-1.92-3.57-2.01-5.81c-0.12-2.83,2.18-6.42,0.72-9.01c-4.78-8.51-20.3,10.19-4.89,18.8c5.39,3.01,0.02,4.98,0.79,6.16
	c0.67,1.03,2.98-3,7.6-1.55c7.64,2.41,21.67,0.55,25.06-1.3c3.84-2.09,10.17,7.88,5.44-2.28c-1.24-2.66,15.46-12,8.67-24.58
	c-12.07-22.36-57.68-31.83-38.75-50.99C90.08,88.07,106.6,97.33,102.78,100.35z"/>
<path class="st1" d="M115.41,91.56c1.25,0.72,7.75,8.45,7.12,9.29c-1,1.35-2.59,1.51-2.74,2.72c-0.09,0.74,0.11,0.42,0.4,0.82
	c0.7,0.99,2.33,2.1,3.11,3.63c1.47,2.89,2.83,7.83-2.76,11.18c-1.61,0.96-5.57,2.19-8.54,0.28c-5.38-3.46-7.29-6.33-8.19-7.54
	c-0.05-0.07,13.28,3.17,12.29-8.22c-0.23-2.57-1.5-5.43-4.03-7.46C111.55,95.86,115.39,91.56,115.41,91.56z"/>
<path class="st1" d="M115.15,141.24c18.71,17.8,13.78,28.27,9.33,34.81c-2.17,3.19-5.75,4.46-5.96,6.61
	c-0.09,0.9,2.31,3.44,1.59,4.11c-1.28,1.19-4.36-2.02-6.99-0.84c-9.81,4.42-19.86,3.23-25.64,1.79c-2.92-0.73-7.52,0.45-8.01-0.19
	c-2.79-3.63-5.68-4.88-6.64-5.97c-0.38-0.43-0.93-0.38-0.58-0.7c0.93-0.84,2.89-1.46,5.14-1.21c2.45,0.27,5.26,1.46,8,1.59
	c7.47,0.36,13.3-1.43,17.79-2.34c4.69-0.95,11.83,5.64,9.15-1.95c-0.32-0.89-1.26-2.07-0.99-2.82c0.93-2.55,12.93-10.29,9.53-22.17
	C119.48,147.09,112.34,138.56,115.15,141.24z"/>
<path class="st1" d="M128.05,93.52l7.2,8.96l0.62,69.99c-0.54,3.54-3.23,5.2-4.84,8.11c3.26,0.18,6.68-2.68,9.66-4.85
	c2.31,3.45,6.21,7.42,10.57,7.94c-3.71-3.9-6.55-8.57-7.38-14.14l0.72-46.06l22.34,46.51l26.89-52.07l-0.06,53.21l-7.28,10.27
	c6.35,0.35,11.86-0.85,15.33-4.67c5.07,3.45,9.27,5.37,14.34,3.8l-6.34-7.82l-0.2-73.73c1.2-3.04,4.04-5.61,6.83-7.03
	c-5.3-2.39-9.33-1.67-12.99,3.45c-3.78-3.66-8.65-4.27-14.06-3.34c2.74,2.04,4.47,4.87,3.52,7.32l-18.03,41l-22.42-41.85l3.45-6.5
	c-5.74-1.24-9.47-0.06-11.93,5.8C140.81,91.54,134.47,91.05,128.05,93.52z"/>
<path class="st1" d="M154.84,98.89c0.77-2.34,1.79-4.68,2.95-7.02l8.16,7.38c-1.18,1.82-2.96,2.88-3.55,5.46l14.47,28.5l-1.58,3.97
	L154.84,98.89z"/>
<path class="st1" d="M212.09,99.07c1.78-3.24,3.67-5.77,5.84-6.58l6.92,7.36c-2.6,1.64-4.25,3.94-4.46,7.2l-1.23,69.08
	c1.13,4.91,2.72,10.33,5.84,12.81c-4.59,1.91-9.35,1.42-14.33-2.34c-3.97,3.6-9.45,4.9-15.82,4.84l-9.18-8.9
	c5.9,1.91,10.97,1.23,15.67-3.34c4.55,4.36,10.69,4.4,16.43,2.69l-6.78-9.54L212.09,99.07z"/>
<polygon class="st1" points="193.72,148.76 194.28,123.49 170.9,171.46 179.52,178.81 "/>
<path class="st1" d="M140.27,178.9c-1.75,1.62-4.88,2.54-9.82,2.53l9.79,6.93c3.46,0.99,6.64,0.31,9.7-1.13
	c2.28,2.52,5.14,4.05,8.61,4.54c-2.56-6.02-4.85-12.11-5.81-18.53l-0.64-30.29l-6.27-12.91L145.33,170
	c1.02,6.58,3.58,11.15,7.38,14.09C147.64,184.79,142.96,184.27,140.27,178.9z"/>
<path class="st1" d="M16.34,84.22H12.3v-5.48h4.04c0.49,1.49,1.39,2.24,2.72,2.24c0.97,0,1.45-0.37,1.45-1.11
	c0-0.38-0.17-0.7-0.5-0.95c-0.36-0.28-1.12-0.66-2.28-1.15c-1.46-0.63-2.54-1.18-3.23-1.63c-0.64-0.42-1.19-0.99-1.65-1.73
	c-0.45-0.73-0.68-1.53-0.68-2.42c0-1.59,0.54-2.83,1.63-3.72c1.08-0.89,2.4-1.34,3.97-1.34c1.58,0,2.91,0.43,4,1.28v-1.06h4.06v4.85
	h-4.01C21.32,70.67,20.45,70,19.2,70c-0.88,0-1.31,0.36-1.31,1.07c0,0.34,0.12,0.6,0.37,0.77c0.24,0.18,1.02,0.57,2.33,1.19
	c1.77,0.83,2.94,1.44,3.54,1.83c0.3,0.19,0.61,0.45,0.92,0.79c0.31,0.34,0.57,0.69,0.78,1.05c0.47,0.8,0.71,1.67,0.71,2.6
	c0,1.43-0.56,2.64-1.68,3.63c-1.12,1.01-2.53,1.51-4.23,1.51c-1.58,0-3.01-0.44-4.3-1.33V84.22L16.34,84.22z M38.63,81.18v-2.17
	c-0.58-0.3-1.19-0.44-1.84-0.44c-0.57,0-1.02,0.15-1.36,0.44c-0.34,0.3-0.51,0.69-0.51,1.15c0,0.48,0.17,0.88,0.52,1.18
	c0.36,0.31,0.76,0.46,1.22,0.46C37.48,81.81,38.13,81.6,38.63,81.18L38.63,81.18z M33.76,75.65l-5.08-0.49
	c0.55-1.17,1.46-1.99,2.71-2.47c1.23-0.47,3.05-0.71,5.45-0.71c0.89,0,1.68,0.03,2.38,0.08c0.7,0.05,1.33,0.13,1.88,0.24
	c1.15,0.21,1.99,0.52,2.54,0.95c0.55,0.43,0.93,0.9,1.15,1.39c0.23,0.52,0.34,1.32,0.34,2.4v3.43h1.6v3.74h-8.09v-0.8
	c-1.12,0.69-2.62,1.03-4.5,1.03c-1.76,0-3.09-0.37-3.99-1.11c-0.9-0.74-1.35-1.61-1.35-2.62c0-1.11,0.56-2.03,1.66-2.74
	c1.1-0.71,2.54-1.07,4.32-1.07c1.62,0,2.9,0.2,3.86,0.6v-0.36c0-0.73-0.06-1.25-0.17-1.55c-0.12-0.31-0.39-0.57-0.8-0.8
	c-0.43-0.21-0.93-0.32-1.5-0.32C35.12,74.5,34.32,74.88,33.76,75.65L33.76,75.65z M58.29,84.22h-9.92v-3.74h1.61v-4.42h-1.61v-3.74
	h8.11v1.51c1.59-1.14,3.3-1.71,5.13-1.71c1.6,0,2.81,0.42,3.61,1.26c0.8,0.84,1.2,2.19,1.2,4.06v3.05h1.49v3.74h-7.99v-5.29
	c0-1.15-0.1-1.91-0.31-2.28c-0.22-0.36-0.65-0.54-1.28-0.54c-0.58,0-1.2,0.21-1.86,0.63v3.74h1.81V84.22L58.29,84.22z M79.81,79.87
	v3.66c-0.42,0.27-1.04,0.51-1.84,0.72c-0.84,0.21-1.65,0.32-2.43,0.32c-0.97,0-1.81-0.15-2.51-0.46c-0.71-0.31-1.26-0.73-1.62-1.25
	c-0.2-0.3-0.34-0.58-0.44-0.83c-0.1-0.25-0.17-0.53-0.21-0.84c-0.06-0.54-0.09-1.59-0.09-3.14v-2h-1.6v-3.74h1.6v-1.82l6.51-2.93
	v4.75h2.62v3.74h-2.62v2.31c0,0.75,0.08,1.26,0.22,1.51c0.14,0.26,0.43,0.38,0.88,0.38C78.71,80.25,79.21,80.12,79.81,79.87
	L79.81,79.87z M88.49,78.24c0,1.9,0.71,2.84,2.14,2.84c1.52,0,2.27-0.96,2.27-2.87c0-0.88-0.19-1.55-0.56-2.04
	c-0.38-0.48-0.91-0.72-1.6-0.72c-0.68,0-1.23,0.24-1.64,0.71C88.7,76.64,88.49,77.33,88.49,78.24L88.49,78.24z M81.92,78.22
	c0-1.75,0.78-3.22,2.32-4.43c1.55-1.2,3.64-1.8,6.28-1.8c2.65,0,4.81,0.58,6.47,1.74c1.66,1.16,2.49,2.68,2.49,4.54
	c0,1.8-0.79,3.3-2.38,4.5c-1.58,1.2-3.68,1.8-6.28,1.8c-2.8,0-4.99-0.6-6.56-1.8C82.7,81.57,81.92,80.06,81.92,78.22L81.92,78.22z
	 M106.19,84.37h-4.01v-3.79h3.76c0.96,0.97,2.01,1.46,3.16,1.46c1.16,0,1.73-0.23,1.73-0.67c0-0.23-0.12-0.4-0.37-0.53
	c-0.26-0.13-0.94-0.32-2.05-0.57c-0.89-0.23-1.88-0.49-2.97-0.8c-0.94-0.26-1.68-0.57-2.22-0.96c-0.56-0.38-0.93-0.76-1.12-1.13
	c-0.21-0.37-0.31-0.85-0.31-1.44c0-1.31,0.49-2.28,1.47-2.91c0.97-0.61,2.2-0.92,3.7-0.92c1.55,0,2.85,0.28,3.9,0.83v-0.63h3.96
	v3.47h-3.66c-0.91-0.82-2-1.23-3.25-1.23c-0.99,0-1.49,0.25-1.49,0.75c0,0.23,0.15,0.39,0.44,0.46c0.25,0.08,1.08,0.25,2.48,0.53
	c1.59,0.32,2.83,0.64,3.73,0.95c0.89,0.32,1.55,0.74,2,1.26c0.44,0.52,0.66,1.16,0.66,1.93c0,1.37-0.54,2.39-1.61,3.04
	c-1.07,0.64-2.38,0.97-3.95,0.97c-1.56,0-2.88-0.27-3.96-0.8V84.37L106.19,84.37z M131.61,84.22h-6.96v-4.08h1.38v-8.89h-1.42v-4.1
	h10.84l2.65,6.58l2.72-6.58h10.77v4.1h-1.41v8.89h1.45v4.08h-9.38v-4.08h1.43v-9.52l-5.43,13.61h-2.68l-5.38-13.48v9.4h1.42V84.22
	L131.61,84.22z M163.69,81.18v-2.17c-0.58-0.3-1.19-0.44-1.84-0.44c-0.57,0-1.02,0.15-1.36,0.44c-0.34,0.3-0.51,0.69-0.51,1.15
	c0,0.48,0.17,0.88,0.52,1.18c0.36,0.31,0.76,0.46,1.22,0.46C162.54,81.81,163.19,81.6,163.69,81.18L163.69,81.18z M158.82,75.65
	l-5.08-0.49c0.56-1.17,1.46-1.99,2.71-2.47c1.23-0.47,3.05-0.71,5.45-0.71c0.89,0,1.68,0.03,2.38,0.08c0.7,0.05,1.33,0.13,1.88,0.24
	c1.15,0.21,1.99,0.52,2.54,0.95c0.55,0.43,0.93,0.9,1.15,1.39c0.23,0.52,0.34,1.32,0.34,2.4v3.43h1.6v3.74h-8.09v-0.8
	c-1.12,0.69-2.62,1.03-4.5,1.03c-1.76,0-3.09-0.37-3.99-1.11c-0.9-0.74-1.35-1.61-1.35-2.62c0-1.11,0.56-2.03,1.66-2.74
	c1.1-0.71,2.54-1.07,4.31-1.07c1.62,0,2.9,0.2,3.86,0.6v-0.36c0-0.73-0.06-1.25-0.17-1.55c-0.12-0.31-0.39-0.57-0.8-0.8
	c-0.43-0.21-0.93-0.32-1.5-0.32C160.18,74.5,159.38,74.88,158.82,75.65L158.82,75.65z M183.35,84.22h-9.92v-3.74h1.61v-4.42h-1.61
	v-3.74h8.11v1.51c1.59-1.14,3.3-1.71,5.13-1.71c1.6,0,2.81,0.42,3.61,1.26c0.8,0.84,1.2,2.19,1.2,4.06v3.05h1.49v3.74h-7.99v-5.29
	c0-1.15-0.1-1.91-0.31-2.28c-0.22-0.36-0.65-0.54-1.28-0.54c-0.58,0-1.2,0.21-1.86,0.63v3.74h1.81V84.22L183.35,84.22z M193.6,89.29
	v-3.36c0.89,0,1.48-0.08,1.79-0.23c0.31-0.16,0.5-0.4,0.58-0.74c0.08-0.33,0.12-1.33,0.12-3.01v-5.9h-1.28v-3.74h7.78v9.44
	c0,1.99-0.1,3.39-0.31,4.21c-0.21,0.83-0.59,1.5-1.14,2.01c-0.55,0.52-1.24,0.89-2.07,1.1c-0.83,0.21-1.93,0.32-3.31,0.32
	C194.91,89.4,194.19,89.36,193.6,89.29L193.6,89.29z M195.68,68.96c0-0.64,0.34-1.17,1.04-1.56c0.69-0.39,1.54-0.59,2.56-0.59
	c1.05,0,1.9,0.21,2.53,0.62c0.63,0.41,0.94,0.92,0.94,1.52c0,0.64-0.33,1.15-1,1.53c-0.66,0.39-1.5,0.58-2.51,0.58
	c-1.02,0-1.87-0.18-2.55-0.53C196.02,70.18,195.68,69.66,195.68,68.96L195.68,68.96z M215.47,81.18v-2.17
	c-0.58-0.3-1.19-0.44-1.84-0.44c-0.57,0-1.02,0.15-1.36,0.44c-0.34,0.3-0.51,0.69-0.51,1.15c0,0.48,0.17,0.88,0.52,1.18
	c0.36,0.31,0.76,0.46,1.22,0.46C214.31,81.81,214.96,81.6,215.47,81.18L215.47,81.18z M210.59,75.65l-5.08-0.49
	c0.56-1.17,1.46-1.99,2.71-2.47c1.23-0.47,3.05-0.71,5.45-0.71c0.89,0,1.68,0.03,2.38,0.08c0.7,0.05,1.33,0.13,1.88,0.24
	c1.15,0.21,1.99,0.52,2.54,0.95c0.55,0.43,0.93,0.9,1.15,1.39c0.22,0.52,0.33,1.32,0.33,2.4v3.43h1.6v3.74h-8.09v-0.8
	c-1.12,0.69-2.62,1.03-4.5,1.03c-1.76,0-3.09-0.37-3.99-1.11c-0.9-0.74-1.35-1.61-1.35-2.62c0-1.11,0.56-2.03,1.66-2.74
	c1.1-0.71,2.54-1.07,4.31-1.07c1.62,0,2.9,0.2,3.86,0.6v-0.36c0-0.73-0.06-1.25-0.17-1.55c-0.12-0.31-0.39-0.57-0.8-0.8
	c-0.43-0.21-0.93-0.32-1.5-0.32C211.95,74.5,211.15,74.88,210.59,75.65L210.59,75.65z M235.24,84.22h-10.08v-3.74h1.71v-4.42h-1.71
	v-3.74h7.76v2.99c0.29-0.74,0.74-1.38,1.36-1.92c0.58-0.53,1.18-0.88,1.78-1.04c0.58-0.15,1.42-0.23,2.54-0.23v5.23
	c-0.15,0-0.33,0-0.54,0c-1.33,0-2.31,0.13-2.96,0.38c-0.67,0.26-1.13,0.6-1.37,1.03c-0.25,0.44-0.38,1.02-0.39,1.74h1.9V84.22
	L235.24,84.22z M246.14,77.34h3.65c0.02-0.24,0.03-0.38,0.03-0.41c0-0.64-0.17-1.18-0.52-1.6c-0.34-0.41-0.8-0.62-1.37-0.62
	c-0.59,0-1.03,0.23-1.34,0.68c-0.31,0.46-0.46,1.03-0.46,1.71C246.13,77.18,246.13,77.26,246.14,77.34L246.14,77.34z M250.27,80.45
	l5.36,0.63c-0.24,0.53-0.58,1.01-1.01,1.43c-0.43,0.42-0.96,0.79-1.58,1.1c-1.25,0.64-2.74,0.96-4.48,0.96
	c-2.92,0-5.12-0.58-6.59-1.73c-1.47-1.15-2.21-2.65-2.21-4.5c0-1.82,0.73-3.33,2.18-4.54c1.44-1.21,3.39-1.82,5.85-1.82
	c2.37,0,4.3,0.57,5.79,1.72c1.46,1.14,2.24,2.86,2.34,5.19h-9.87c0.03,1.93,0.78,2.89,2.27,2.89
	C249.23,81.78,249.88,81.34,250.27,80.45L250.27,80.45z M262.67,84.37h-4.01v-3.79h3.76c0.96,0.97,2.01,1.46,3.16,1.46
	c1.15,0,1.73-0.23,1.73-0.67c0-0.23-0.12-0.4-0.37-0.53c-0.26-0.13-0.94-0.32-2.05-0.57c-0.89-0.23-1.88-0.49-2.97-0.8
	c-0.94-0.26-1.68-0.57-2.22-0.96c-0.56-0.38-0.93-0.76-1.12-1.13c-0.21-0.37-0.31-0.85-0.31-1.44c0-1.31,0.49-2.28,1.47-2.91
	c0.97-0.61,2.2-0.92,3.7-0.92c1.55,0,2.85,0.28,3.9,0.83v-0.63h3.96v3.47h-3.66c-0.91-0.82-2-1.23-3.25-1.23
	c-0.99,0-1.49,0.25-1.49,0.75c0,0.23,0.15,0.39,0.44,0.46c0.25,0.08,1.08,0.25,2.48,0.53c1.59,0.32,2.83,0.64,3.73,0.95
	c0.89,0.32,1.55,0.74,2,1.26c0.44,0.52,0.66,1.16,0.66,1.93c0,1.37-0.54,2.39-1.61,3.04c-1.07,0.64-2.38,0.97-3.95,0.97
	c-1.56,0-2.88-0.27-3.96-0.8V84.37z"/>
<path class="st1" d="M63.52,203.84v4.69h2.21c1.54,0,2.66-0.16,3.36-0.47c0.67-0.31,1.01-0.91,1.01-1.81c0-0.59-0.18-1.09-0.55-1.49
	c-0.35-0.39-0.82-0.64-1.41-0.75c-0.56-0.12-1.52-0.17-2.86-0.17H63.52L63.52,203.84z M66.46,223.34h-17.2v-6h2.86v-12.99h-2.86v-6
	H67.3c4.14,0,7.17,0.34,9.08,1.02c1.92,0.7,3.33,1.64,4.24,2.84c0.9,1.2,1.35,2.51,1.35,3.93c0,1.76-0.53,3.23-1.61,4.39
	c-1.07,1.17-2.49,2.02-4.25,2.55c-1.73,0.51-4.4,0.77-8.01,0.77h-4.58v3.5h2.95V223.34L66.46,223.34z M99.51,218.89v-3.18
	c-0.95-0.44-1.95-0.65-3.01-0.65c-0.93,0-1.68,0.21-2.22,0.65c-0.56,0.44-0.83,1.01-0.83,1.69c0,0.71,0.28,1.28,0.84,1.73
	c0.58,0.45,1.25,0.68,2,0.68C97.62,219.81,98.69,219.51,99.51,218.89L99.51,218.89z M91.53,210.8l-8.32-0.72
	c0.91-1.72,2.39-2.92,4.43-3.61c2.01-0.69,4.99-1.04,8.92-1.04c1.46,0,2.76,0.04,3.91,0.12c1.15,0.08,2.17,0.2,3.08,0.35
	c1.88,0.3,3.26,0.76,4.17,1.39c0.9,0.63,1.53,1.31,1.88,2.04c0.37,0.75,0.55,1.93,0.55,3.52v5.03h2.62v5.48H99.51v-1.18
	c-1.83,1.01-4.29,1.51-7.36,1.51c-2.89,0-5.07-0.54-6.53-1.62c-1.48-1.08-2.22-2.36-2.22-3.84c0-1.63,0.91-2.97,2.72-4.02
	c1.8-1.04,4.17-1.56,7.07-1.56c2.65,0,4.76,0.29,6.32,0.88V213c0-1.07-0.09-1.83-0.27-2.26c-0.2-0.45-0.64-0.84-1.31-1.17
	c-0.71-0.31-1.52-0.47-2.46-0.47C93.76,209.1,92.44,209.67,91.53,210.8L91.53,210.8z M131.9,223.34h-16.52v-5.48h2.79v-6.48h-2.79
	v-5.48h12.71v4.38c0.48-1.09,1.22-2.02,2.22-2.81c0.95-0.78,1.93-1.29,2.92-1.53c0.95-0.23,2.33-0.34,4.17-0.34v7.65
	c-0.24,0-0.53,0-0.89,0c-2.17,0-3.78,0.18-4.84,0.56c-1.1,0.38-1.85,0.88-2.24,1.5c-0.41,0.65-0.62,1.5-0.64,2.55h3.1V223.34
	L131.9,223.34z M157.11,223.34H140.6v-5.48h2.79v-6.48h-2.79v-5.48h12.71v4.38c0.48-1.09,1.22-2.02,2.22-2.81
	c0.95-0.78,1.93-1.29,2.92-1.53c0.95-0.23,2.33-0.34,4.17-0.34v7.65c-0.24,0-0.53,0-0.89,0c-2.17,0-3.78,0.18-4.84,0.56
	c-1.1,0.38-1.85,0.88-2.24,1.5c-0.41,0.65-0.62,1.5-0.64,2.55h3.1V223.34L157.11,223.34z M179.81,223.34h-14.55v-5.48h2.12v-6.48
	h-2.12v-5.48h12.77v11.96h1.78V223.34L179.81,223.34z M166.49,200.99c0-0.94,0.57-1.71,1.71-2.28c1.13-0.58,2.53-0.86,4.19-0.86
	c1.71,0,3.09,0.3,4.14,0.9c1.03,0.61,1.54,1.35,1.54,2.23c0,0.94-0.53,1.69-1.61,2.24c-1.09,0.56-2.45,0.85-4.11,0.85
	c-1.68,0-3.08-0.26-4.19-0.77C167.05,202.79,166.49,202.02,166.49,200.99L166.49,200.99z M197.45,223.34h-14.72v-5.48h2.18v-14.03
	h-2.18v-5.48h12.84v19.51h1.88V223.34L197.45,223.34z M215.03,223.34h-14.72v-5.48h2.18v-14.03h-2.18v-5.48h12.84v19.51h1.88V223.34
	L215.03,223.34z M234.5,218.89v-3.18c-0.95-0.44-1.95-0.65-3.01-0.65c-0.93,0-1.67,0.21-2.22,0.65c-0.56,0.44-0.83,1.01-0.83,1.69
	c0,0.71,0.28,1.28,0.84,1.73c0.58,0.45,1.25,0.68,2,0.68C232.6,219.81,233.67,219.51,234.5,218.89L234.5,218.89z M226.51,210.8
	l-8.32-0.72c0.91-1.72,2.39-2.92,4.43-3.61c2.01-0.69,4.99-1.04,8.92-1.04c1.46,0,2.76,0.04,3.91,0.12c1.15,0.08,2.17,0.2,3.08,0.35
	c1.88,0.3,3.26,0.76,4.17,1.39c0.9,0.63,1.53,1.31,1.88,2.04c0.37,0.75,0.55,1.93,0.55,3.52v5.03h2.62v5.48H234.5v-1.18
	c-1.83,1.01-4.29,1.51-7.36,1.51c-2.89,0-5.07-0.54-6.53-1.62c-1.48-1.08-2.22-2.36-2.22-3.84c0-1.63,0.91-2.97,2.72-4.02
	c1.8-1.04,4.17-1.56,7.07-1.56c2.65,0,4.76,0.29,6.32,0.88V213c0-1.07-0.09-1.83-0.27-2.26c-0.2-0.45-0.64-0.84-1.31-1.17
	c-0.71-0.31-1.52-0.47-2.46-0.47C228.74,209.1,227.43,209.67,226.51,210.8z"/>
</svg>
