<?xml version="1.0" encoding="utf-8"?>
<!-- Generator: Adobe Illustrator 24.1.1, SVG Export Plug-In . SVG Version: 6.00 Build 0)  -->
<svg version="1.1" xmlns="http://www.w3.org/2000/svg" xmlns:xlink="http://www.w3.org/1999/xlink" x="0px" y="0px"
	 viewBox="0 0 290 282" style="enable-background:new 0 0 290 282;" xml:space="preserve">
<style type="text/css">
	.st0{fill-rule:evenodd;clip-rule:evenodd;}
	.st1{fill-rule:evenodd;clip-rule:evenodd;fill:none;stroke:#FFFFFF;stroke-width:0.5669;stroke-miterlimit:22.9256;}
	.st2{fill-rule:evenodd;clip-rule:evenodd;fill:#FFFFFF;}
	.st3{fill-rule:evenodd;clip-rule:evenodd;fill:#030202;}
	.st4{fill:#030202;}
</style>
<g id="Fondo">
	<rect x="-1" class="st0" width="291" height="282"/>
</g>
<g id="Logo">
	<rect x="-32.86" y="628.43" class="st1" width="375.83" height="26.62"/>
	<path class="st2" d="M249.56,103.18c-2.12-1.82,8.8-1.97,5.14,8.26c-0.31,0.87-3.38,4.04-6.52,4.24
		c-9.45,0.61-14.75-3.75-16.42-9.36c-5.6-18.84,22.52-27.92,34.31-12.63c8.62,11.18,4.88,22.35-3.97,32.32
		c-1.9,2.15-3.93,4.1-5.96,5.99c-2.14,1.99-4.58,3.93-6.6,5.93c-1.74,1.72-5.89,4.61-9.65,8.37c-1.7,1.7-3.51,3.51-4.65,5.59
		c-3.36,6.11-4,15.52,6.24,17.95c8.46,2.01,10.11-6.06,7.49-8.12c-0.27-0.21-0.97-0.73-1.77-0.78c-0.87-0.06-1.84,0.35-2.03,0.71
		c-0.15,0.28-0.73,1.15-0.38,1.45c0.14,0.12,0.3,0.42,0.59,0.44c0.48,0.03,1.12-0.53,1.1-0.26c-0.14,2.11-3.47,1.54-3.47,1.55
		c-0.11,0.43,0.92,1.25,0.58,1.2c-4.52-0.74-3.31-4.97-2.17-6.07c0.58-0.56,1.54-0.52,2.09-0.88c0.58-0.39-0.45-1.22,0.04-1.42
		c1.38-0.57,4.05,0.12,5.34,1c1.66,1.13,3.71,3.18,3.15,6.92c-0.51,3.47-2.78,6.56-8.81,6.13c-2.62-0.19-5.35-0.99-7.38-2.53
		c-2.54-1.93-4.11-4.78-4.48-6.43c-1.54-6.89,3.13-14.16,8.2-19.25c6.38-6.4,12.06-10.83,17.61-17.91
		c4.97-6.34,9.18-13.57,8.39-16.92c-0.36-1.53-1.27-2.95-2.6-3.94c-1.37-1.01-2.95-1.61-3.63-2.15c-0.32-0.26-0.01-0.63,0.1-0.78
		c0.17-0.24,0.86-0.32,2.3,0.29c1.33,0.56,1.86,1.35,2,1.22c0.47-0.43-2.34-3.15-5.06-5.1c-1.45-1.04-3.79-1.3-4.84-1.81
		c-0.86-0.42-0.66-1.11-0.54-1.49c0.39-1.16,1.84-0.95,2.62-0.73c2.33,0.68,5.61,2.96,8.01,6.17c1.36,1.83,1.65,4.1,1.94,4.14
		c1.11,0.13,0.02-5.69-3.56-10.29c-1.33-1.71-3.22-3.07-5.17-4.15c-6.24-3.45-15.48-3.47-21.63,4.19
		c-5.45,6.79-2.66,18.52,7.01,18.35c4.19-0.07,4.07-1.66,3.89-5.68c-0.01-0.27,0.39-0.39,0.91,0.2c0.56,0.63,0.9,1.92,1.61,2.26
		c2.55,1.2,3.38-3.18,2.33-4.73C250.91,104.11,250.23,103.75,249.56,103.18z"/>
	<path class="st2" d="M239.2,154.75c-6.4,2.92-3.34,13.57,3.31,14.09c3.79,0.29,5.54-2.85,5.02-3.33c-0.21-0.2-1.77,1.83-3.85,2.15
		c-3.07,0.48-5.54-1.67-4.12-7.57c0.41-1.71,2.13-2.64,2.13-3.63C241.68,155.61,240.57,154.12,239.2,154.75z"/>
	<path class="st2" d="M242.14,151.7c2.52-1.46,10.92-1.89,18.11,0.64c4.69,1.65,8.83,4.63,10.82,8.86c1.43,3.03-1.8,5.87-4.07,2.95
		c-1.47-1.89-3.11-5.24-5.79-7.48c-0.73-0.61-2.84-2.03-4.75-2.86c-2.56-1.11-4.86-1.52-3.98-0.99c1.79,1.09,3.66,2.18,4.25,3.72
		c0.43,1.13,0.25,3.22-1.47,2.08c-0.99-0.65-1.83-2.87-3.94-4.69C249.28,152.16,242.02,151.77,242.14,151.7z"/>
	<path class="st2" d="M272.97,142.81c-0.67-0.79-1.15-2.07-1.84-2.54c-0.33-0.22-1.81-0.48-2.72,0.25
		c-0.77,0.63-0.67,2.06-1.03,3.13c-0.36,1.06-1.98-2.38-3.08-3.12c-5.1-3.45-12.49,0.6-9.17,3.13c0.33,0.25,2.92,0.07,3.89-0.27
		c0.41-0.14,0.13,1.24-0.76,2.48c-1.88,2.63-8.39,2.04-11.57,2.3c-6.3,0.52-12.08,8.42-11.49,7.42
		c6.9-11.89,23.81-22.96,33.21-19.95C273.54,137.29,273.44,143.37,272.97,142.81z"/>
	<path class="st2" d="M258.86,132.1c2.05-1.47,5.69-3.4,8.25-5.58c4.62-3.95,8.14-8.74,9.64-13.22c7.6-22.65-9.12-24.91-4.82-13.11
		c3.17,8.69-1.02,17.41-5.54,23.85C262.8,129.13,258.68,132.23,258.86,132.1z"/>
	<path class="st2" d="M44.84,105.07c2.04-1.75-8.47-1.9-4.95,7.94c0.3,0.84,3.25,3.88,6.28,4.08c9.1,0.59,14.2-3.61,15.8-9.01
		c5.39-18.13-21.68-26.86-33.02-12.15c-8.3,10.76-4.7,21.51,3.82,31.1c1.83,2.07,3.78,3.94,5.73,5.76c2.06,1.92,4.41,3.78,6.35,5.7
		c1.68,1.65,5.67,4.44,9.29,8.05c1.64,1.64,3.37,3.38,4.47,5.38c3.24,5.88,3.85,14.94-6,17.28c-8.14,1.93-9.73-5.83-7.21-7.81
		c0.26-0.21,0.93-0.7,1.7-0.75c0.83-0.06,1.77,0.34,1.96,0.69c0.15,0.27,0.7,1.11,0.36,1.39c-0.13,0.11-0.29,0.41-0.57,0.43
		c-0.46,0.03-1.07-0.51-1.06-0.25c0.14,2.03,3.34,1.49,3.34,1.49c0.1,0.41-0.89,1.2-0.56,1.15c4.35-0.71,3.19-4.78,2.09-5.84
		c-0.56-0.54-1.49-0.5-2.01-0.84c-0.56-0.37,0.43-1.17-0.04-1.37c-1.33-0.55-3.9,0.11-5.14,0.96c-1.59,1.09-3.57,3.06-3.03,6.65
		c0.49,3.34,2.67,6.32,8.48,5.9c2.53-0.18,5.15-0.96,7.1-2.44c2.45-1.86,3.95-4.6,4.31-6.19c1.48-6.63-3.02-13.63-7.89-18.52
		c-6.13-6.16-11.6-10.42-16.95-17.23c-4.79-6.1-8.84-13.06-8.07-16.28c0.35-1.48,1.22-2.84,2.5-3.79c1.32-0.97,2.84-1.55,3.49-2.07
		c0.31-0.25,0.01-0.61-0.1-0.75c-0.17-0.23-0.83-0.3-2.22,0.28c-1.28,0.54-1.79,1.3-1.93,1.18c-0.45-0.42,2.25-3.03,4.87-4.91
		c1.4-1,3.65-1.25,4.66-1.74c0.83-0.4,0.64-1.07,0.52-1.43c-0.38-1.11-1.77-0.92-2.52-0.7c-2.25,0.65-5.4,2.85-7.71,5.94
		c-1.31,1.76-1.59,3.95-1.87,3.98c-1.07,0.13-0.02-5.48,3.43-9.9c1.28-1.64,3.1-2.95,4.98-3.99c6.01-3.32,14.89-3.34,20.82,4.03
		c5.25,6.53,2.56,17.82-6.75,17.66c-4.04-0.07-3.92-1.59-3.74-5.46c0.01-0.26-0.37-0.38-0.88,0.19c-0.54,0.6-0.86,1.85-1.55,2.17
		c-2.45,1.16-3.25-3.06-2.24-4.55C43.54,105.96,44.2,105.62,44.84,105.07z"/>
	<path class="st2" d="M54.81,154.7c6.16,2.81,3.22,13.06-3.18,13.56c-3.65,0.28-5.33-2.74-4.83-3.21c0.2-0.19,1.7,1.76,3.7,2.07
		c2.95,0.46,5.33-1.61,3.97-7.28c-0.4-1.64-2.05-2.54-2.05-3.5C52.42,155.53,53.49,154.09,54.81,154.7z"/>
	<path class="st2" d="M51.99,151.76c-2.42-1.41-10.51-1.81-17.43,0.61c-4.51,1.58-8.5,4.45-10.42,8.52
		c-1.38,2.92,1.73,5.65,3.92,2.84c1.41-1.81,3-5.04,5.57-7.19c0.7-0.59,2.74-1.96,4.57-2.75c2.47-1.07,4.68-1.47,3.83-0.95
		c-1.73,1.05-3.52,2.1-4.09,3.58c-0.42,1.08-0.24,3.09,1.42,2c0.95-0.63,1.76-2.76,3.79-4.52C45.11,152.21,52.1,151.83,51.99,151.76
		z"/>
	<path class="st2" d="M22.32,143.2c0.64-0.76,1.1-1.99,1.77-2.45c0.32-0.22,1.75-0.46,2.62,0.24c0.74,0.6,0.64,1.98,0.99,3.01
		c0.35,1.02,1.9-2.29,2.96-3c4.91-3.32,12.02,0.58,8.82,3.01c-0.31,0.24-2.81,0.07-3.74-0.26c-0.4-0.14-0.13,1.19,0.73,2.39
		c1.81,2.53,8.07,1.96,11.13,2.22c6.06,0.5,11.62,8.1,11.06,7.14c-6.64-11.44-22.91-22.1-31.96-19.2
		C21.76,137.89,21.86,143.74,22.32,143.2z"/>
	<path class="st2" d="M35.89,132.9c-1.98-1.42-5.48-3.27-7.94-5.37c-4.44-3.8-7.83-8.41-9.28-12.72
		c-7.32-21.8,8.78-23.97,4.64-12.62c-3.05,8.36,0.98,16.76,5.33,22.95C32.1,130.04,36.07,133.03,35.89,132.9z"/>
	<g>
		<path class="st2" d="M136,194.43c6.17-2.18,10.93,6.58,6.79,11.12c-2.36,2.59-5.54,1.68-5.5,1.04c0.02-0.26,2.36,0.05,3.96-1.05
			c2.37-1.64,2.65-4.58-2.07-7.46c-1.37-0.83-3.12-0.35-3.75-0.98C134.89,196.56,134.68,194.9,136,194.43z"/>
		<path class="st2" d="M132.17,194.12c-1.93,0.48-6.27,4.19-8.63,8.72c-1.54,2.96-2.18,6.28-1.18,9.2c0.72,2.09,3.65,1.93,3.4-0.5
			c-0.16-1.57-0.93-3.92-0.66-6.21c0.07-0.63,0.45-2.28,1-3.56c0.74-1.71,1.68-2.98,1.5-2.32c-0.37,1.35-0.78,2.73-0.35,3.73
			c0.32,0.73,1.39,1.63,1.7,0.29c0.18-0.77-0.44-2.2-0.26-4.04C128.86,197.66,132.26,194.1,132.17,194.12z"/>
		<path class="st2" d="M105.69,208.15c-0.06-0.93-0.56-2.05-0.39-2.79c0.08-0.35,0.91-1.46,1.99-1.56c0.92-0.09,1.77,0.9,2.7,1.35
			c0.92,0.45-0.19-2.78,0.07-3.95c1.22-5.44,8.77-7.52,8.16-3.79c-0.06,0.36-1.92,1.89-2.78,2.29c-0.37,0.17,0.7,0.88,2.1,1.11
			c2.95,0.49,6.94-4,9.24-5.84c4.56-3.65,13.49-2.25,12.46-2.52c-12.24-3.25-30.67,0.35-35.06,8.23
			C101.77,204.97,105.73,208.81,105.69,208.15z"/>
		<path class="st2" d="M154.23,194.58c-6.16-2.18-10.93,6.58-6.79,11.12c2.36,2.59,5.54,1.68,5.5,1.04
			c-0.02-0.26-2.36,0.05-3.96-1.05c-2.37-1.64-2.65-4.58,2.07-7.46c1.37-0.83,3.12-0.35,3.75-0.98
			C155.34,196.71,155.55,195.05,154.23,194.58z"/>
		<path class="st2" d="M158.06,194.27c1.93,0.48,6.27,4.19,8.63,8.72c1.54,2.96,2.18,6.28,1.18,9.2c-0.72,2.09-3.65,1.93-3.4-0.5
			c0.16-1.57,0.93-3.92,0.66-6.21c-0.07-0.63-0.45-2.28-1-3.56c-0.74-1.71-1.68-2.98-1.5-2.32c0.37,1.35,0.78,2.73,0.35,3.73
			c-0.32,0.73-1.39,1.63-1.7,0.29c-0.18-0.77,0.44-2.2,0.26-4.04C161.37,197.81,157.97,194.25,158.06,194.27z"/>
		<path class="st2" d="M184.54,208.3c0.06-0.93,0.56-2.05,0.39-2.79c-0.08-0.35-0.91-1.46-1.99-1.56c-0.92-0.09-1.77,0.9-2.7,1.35
			c-0.92,0.45,0.19-2.78-0.07-3.95c-1.22-5.44-8.77-7.52-8.16-3.79c0.06,0.36,1.91,1.89,2.78,2.29c0.37,0.17-0.7,0.88-2.1,1.11
			c-2.95,0.49-6.94-4-9.24-5.84c-4.56-3.65-13.49-2.25-12.46-2.52c12.24-3.25,30.67,0.35,35.06,8.23
			C188.46,205.13,184.5,208.96,184.54,208.3z"/>
		<path class="st2" d="M145.5,228.95L145.5,228.95c1.19,0,2.54-1.37,2.17-2.87c-3.87-15.71-1.08-17.69-4.33,0
			C143.05,227.62,144.31,228.95,145.5,228.95z"/>
		<path class="st2" d="M154.19,222.65L154.19,222.65c0.71-0.46,0.95-1.79,0.12-2.54c-8.69-7.83-7.84-10.08-2.57,1.67
			C152.19,222.8,153.48,223.11,154.19,222.65z"/>
		<path class="st2" d="M137.35,222.59L137.35,222.59c-0.71-0.46-0.95-1.79-0.12-2.54c8.69-7.83,7.84-10.08,2.57,1.67
			C139.34,222.74,138.05,223.05,137.35,222.59z"/>
		<path class="st2" d="M156.55,214.72L156.55,214.72c0.19-0.46-0.14-1.19-0.81-1.3c-6.99-1.09-7.33-2.48-0.71,1.66
			C155.61,215.43,156.35,215.17,156.55,214.72z"/>
		<path class="st2" d="M134.99,214.65L134.99,214.65c-0.2-0.46,0.14-1.19,0.81-1.3c6.99-1.09,7.33-2.48,0.71,1.66
			C135.93,215.37,135.18,215.11,134.99,214.65z"/>
		<path class="st2" d="M145.04,211.54c1.23,0,2.24-0.98,2.24-2.18c0-1.2-1.01-2.18-2.24-2.18c-1.23,0-2.24,0.98-2.24,2.18
			C142.8,210.57,143.8,211.54,145.04,211.54z"/>
	</g>
	<path class="st2" d="M144.64,66.99c-4.03,7.15-11.94,10.13-19.03,3.82c-2.67-2.37-3.83-1.32-4.33-0.57
		c-0.43,0.65-0.88,1.79-1.58,1.33c-0.96-0.64-1.56-3.09,0.16-3.95c1.29-0.65,2.44,0.31,2.21-0.13c-0.15-0.28-1.67-1.71-3.27-2.96
		c-1.06-0.83-4.61-3.5-5.22-1.08c-1.8,7.06-7.37-9.61,6.26,0.68c2.45,1.85,2,0.66-0.92-1.75c-14.41-11.91-10.62,11.57-4.32,2.93
		c0.47-0.64,2.76,5.28-3.26,5.21c-4.52-0.06-2.29-6.24-5.36-5.57c-1.33,0.29-3.08,1.11-3.79,2.25c-0.56,0.89,0.05,2.83-0.88,3.24
		c-3.39,1.47-5.18-3.07,1.67-5.52c0.85-0.31,3.44-1.22,4.05-1.75c0.23-0.2,0.13-0.88-0.31-0.67c-20.79,9.96-23.48,2.18-20.68-1.99
		c1.91-2.85,7.53-2.24,3.98,1.4c-1.23,1.26-1.07,2,1.18,2.48c4.83,1.04,11.89-1.36,15.68-3.4c1.15-0.62,1.07-0.83,1.12-1.04
		c0.56-2.56-10.54,5.83-12.94,1.6c-0.73-1.29,0.69-2.41,1.73-2.29c0.85,0.09,1.17,0.64,2.03,1.01c0.77,0.33,2.39,0.39,4.15-0.11
		c2.8-0.81,6.44-2.25,8.45-2.64c4.63-0.91,12.18,9.35,11.72,7.96c-1.52-4.53-0.19-6.46-0.15-8.27c0.04-1.8-2.39-2.32-0.19-2.32
		c3.47-0.01,1.94,3.83,1.94,3.82c1.24-4.14,6.56-4.97,9.42-4.6c4.31,0.56,5.13,7.76,1.94,6.01c-0.22-0.12,0.62,1.59,0.23,2.57
		c-0.47,1.17-2.15,1.69-2.17,1.89c-0.46,0.37,0.59-2.06,0.49-4.01c-0.06-1.11-0.79-1.96-1.62-2.33c-2.85-1.26-7.76,1.14-8.26,4.05
		c-1.29,7.46,6.73,12.11,14.22,8.86C140.96,70.27,145.23,65.95,144.64,66.99z"/>
	<path class="st2" d="M140.6,49.64c1.84-0.44,0.69,1.17,0.64,2.66c-0.06,1.94,1.19,4,0.89,4.99c-1.57-0.08-4.53-2.31-4.59-3.87
		c-0.09-2.27,0.73-2.59,2.75-3.64L140.6,49.64z"/>
	<path class="st2" d="M121.56,62.74c-0.47-0.59-8.84-8.22-5.06-7.8c1.79,0.2,0.26,1.93,1.63,3.36
		C119.5,59.72,120.9,61.91,121.56,62.74z"/>
	<path class="st2" d="M142.51,66.5c-4.45,2.52-12.71,6.39-12.18-4.05c0.05-1.07-3.84-1.5-4.29,1.05c-0.09,0.52-0.08,1.71,0.35,2.46
		C132.88,77.18,144.37,65.45,142.51,66.5z"/>
	<path class="st2" d="M146.65,67.05c4.03,7.15,11.94,10.13,19.03,3.82c2.67-2.37,3.83-1.32,4.33-0.57c0.43,0.65,0.88,1.79,1.58,1.33
		c0.96-0.64,1.56-3.09-0.16-3.95c-1.29-0.65-2.44,0.31-2.21-0.13c0.15-0.28,1.67-1.71,3.27-2.96c1.06-0.83,4.61-3.5,5.22-1.08
		c1.8,7.06,7.37-9.61-6.26,0.68c-2.45,1.85-2,0.66,0.92-1.75c14.41-11.91,10.62,11.57,4.32,2.93c-0.47-0.64-2.76,5.28,3.26,5.21
		c4.52-0.06,2.3-6.24,5.36-5.57c1.33,0.29,3.08,1.11,3.79,2.25c0.56,0.89-0.05,2.83,0.88,3.24c3.39,1.47,5.18-3.07-1.67-5.52
		c-0.85-0.31-3.44-1.22-4.05-1.75c-0.23-0.2-0.13-0.88,0.31-0.67c20.79,9.96,23.48,2.18,20.68-1.99c-1.91-2.85-7.53-2.24-3.98,1.4
		c1.23,1.26,1.07,2-1.18,2.48c-4.83,1.04-11.89-1.36-15.68-3.4c-1.15-0.62-1.07-0.83-1.12-1.04c-0.56-2.56,10.54,5.83,12.94,1.6
		c0.73-1.29-0.69-2.41-1.73-2.3c-0.85,0.09-1.17,0.64-2.03,1.01c-0.77,0.33-2.39,0.39-4.15-0.11c-2.8-0.81-6.44-2.25-8.45-2.64
		c-4.63-0.91-12.18,9.35-11.72,7.96c1.52-4.53,0.19-6.46,0.15-8.27c-0.04-1.8,2.39-2.32,0.19-2.32c-3.47-0.01-1.94,3.83-1.94,3.82
		c-1.24-4.14-6.56-4.97-9.42-4.6c-4.31,0.56-5.13,7.76-1.94,6.01c0.22-0.12-0.62,1.59-0.23,2.57c0.47,1.17,2.15,1.69,2.17,1.89
		c0.46,0.37-0.59-2.06-0.49-4.01c0.06-1.11,0.79-1.96,1.62-2.33c2.85-1.26,7.76,1.14,8.26,4.05c1.29,7.46-6.73,12.11-14.22,8.86
		C150.34,70.33,146.06,66.01,146.65,67.05z"/>
	<path class="st2" d="M150.69,49.7c-1.84-0.44-0.69,1.17-0.64,2.66c0.06,1.94-1.19,4-0.89,4.99c1.57-0.08,4.53-2.31,4.59-3.87
		c0.1-2.27-0.73-2.59-2.75-3.64L150.69,49.7z"/>
	<path class="st2" d="M169.73,62.8c0.47-0.59,8.84-8.22,5.06-7.8c-1.79,0.2-0.26,1.93-1.63,3.36
		C171.79,59.78,170.39,61.97,169.73,62.8z"/>
	<path class="st2" d="M148.78,66.56c4.45,2.52,12.71,6.39,12.19-4.05c-0.05-1.07,3.84-1.5,4.29,1.05c0.09,0.52,0.08,1.71-0.35,2.46
		C158.41,77.24,146.92,65.51,148.78,66.56z"/>
	<path class="st2" d="M145.74,55.98c1.73,0,3.15-1.44,3.15-3.2c0-1.77-1.41-3.21-3.15-3.21c-1.73,0-3.15,1.44-3.15,3.21
		C142.59,54.54,144,55.98,145.74,55.98z"/>
	<path class="st2" d="M145.99,48.52c1.38,0,2.5-1.14,2.5-2.55c0-1.4-1.12-2.55-2.5-2.55c-1.38,0-2.5,1.14-2.5,2.55
		C143.49,47.37,144.61,48.52,145.99,48.52z"/>
	<path class="st2" d="M145.66,42.79c0.77,0,1.39-0.64,1.39-1.42s-0.63-1.42-1.39-1.42c-0.77,0-1.39,0.64-1.39,1.42
		S144.89,42.79,145.66,42.79z"/>
	<path class="st2" d="M98.28,96.23c-8.55,3.91-10.65,9.77-7.32,16.86c-13.35-10.51-9.27-16.37-6.16-20.04
		c3.27-3.85,7.36-5.57,11.51-5.59c5.08-0.02,9.99,2.34,10.49,4.42c0.09,0.37-0.94,1-1.74,1.98c-0.78,0.95-1.12,2.15-1.5,2.01
		C102.25,95.36,98.85,95.96,98.28,96.23z"/>
	<path class="st2" d="M79.85,147.67c0.34,0.13,7.34,7.32,7.25,7.8c-0.08,0.42-0.18,8.98-0.34,9.31c-0.19,0.4-2.14-0.76-3.58-2.02
		c-1.16-1.01-2.06-2.3-2.34-2.73c-0.55-0.85-1.15-1.5-1.34-2.22c-0.54-2.06,0.41-3.77,0.63-5.45c0.19-1.42,0.04-3.23-0.02-4.34
		C80.09,147.7,79.62,147.58,79.85,147.67z"/>
	<path class="st2" d="M106.78,93.35c-4.84,3.83-3.32,6.46-0.13,8.63c4.97,3.39,15.2,2.89,10.66-8.17c-1.16-2.83-3.53-4.23-3.53-4.27
		c0.04-1.53,3.38-3.25,3.88-5.25c-2.96-2.49-2.82,4.1-9.87-0.16c-4.27-2.58-16.29-3.89-25.35,0.81c-2.14,1.11-13.85-3.72-6.53,3.72
		c0.97,0.99-3.46,3.49-6,7.9c-12.23,21.2,25.85,36.72,37.7,51.61c4.71,5.91-2.09,19.5-11.24,19.24c-3.62-0.1-11.69,0.93-15.94-4.66
		c-0.89-1.18-1.92-3.57-2.01-5.81c-0.12-2.83,2.18-6.42,0.72-9.01c-4.78-8.51-20.3,10.19-4.89,18.8c5.39,3.01,0.02,4.98,0.79,6.16
		c0.67,1.03,2.98-3,7.6-1.55c7.64,2.41,21.67,0.55,25.06-1.3c3.84-2.09,10.17,7.88,5.44-2.28c-1.24-2.66,15.46-12,8.67-24.58
		c-12.07-22.36-57.68-31.83-38.75-50.99C94.08,81.07,110.6,90.33,106.78,93.35z"/>
	<path class="st2" d="M119.41,84.56c1.25,0.72,7.75,8.45,7.12,9.29c-1,1.35-2.59,1.51-2.74,2.72c-0.09,0.74,0.11,0.42,0.4,0.82
		c0.7,0.99,2.33,2.1,3.11,3.63c1.47,2.89,2.83,7.83-2.76,11.18c-1.61,0.96-5.57,2.19-8.54,0.28c-5.38-3.46-7.29-6.33-8.19-7.54
		c-0.05-0.07,13.28,3.17,12.29-8.22c-0.23-2.57-1.5-5.43-4.03-7.46C115.55,88.86,119.39,84.56,119.41,84.56z"/>
	<path class="st2" d="M119.15,134.24c18.71,17.8,13.78,28.27,9.33,34.81c-2.17,3.19-5.75,4.46-5.96,6.61
		c-0.09,0.9,2.31,3.44,1.59,4.11c-1.28,1.19-4.36-2.02-6.99-0.84c-9.81,4.42-19.86,3.23-25.64,1.79c-2.92-0.73-7.52,0.45-8.01-0.19
		c-2.79-3.63-5.68-4.88-6.64-5.97c-0.38-0.43-0.93-0.38-0.58-0.7c0.93-0.84,2.89-1.46,5.14-1.21c2.45,0.27,5.26,1.46,8,1.59
		c7.47,0.36,13.3-1.43,17.79-2.34c4.69-0.95,11.83,5.64,9.15-1.95c-0.32-0.89-1.26-2.07-0.99-2.82c0.93-2.55,12.93-10.29,9.53-22.17
		C123.48,140.09,116.34,131.56,119.15,134.24z"/>
	<path class="st2" d="M132.05,86.52l7.2,8.96l0.62,69.99c-0.54,3.54-3.23,5.2-4.84,8.11c3.26,0.18,6.68-2.68,9.66-4.85
		c2.31,3.45,6.21,7.42,10.57,7.94c-3.71-3.9-6.55-8.57-7.38-14.14l0.72-46.06l22.34,46.51l26.89-52.07l-0.06,53.21l-7.28,10.27
		c6.35,0.35,11.86-0.85,15.33-4.67c5.07,3.45,9.27,5.37,14.34,3.8l-6.34-7.82l-0.2-73.73c1.2-3.04,4.04-5.61,6.83-7.03
		c-5.3-2.39-9.33-1.67-12.99,3.45c-3.78-3.66-8.65-4.27-14.06-3.34c2.74,2.04,4.47,4.87,3.52,7.32l-18.03,41l-22.42-41.85l3.45-6.5
		c-5.74-1.24-9.47-0.06-11.93,5.8C144.81,84.54,138.47,84.05,132.05,86.52z"/>
	<path class="st2" d="M158.84,91.89c0.77-2.34,1.79-4.68,2.95-7.02l8.16,7.38c-1.18,1.82-2.96,2.88-3.55,5.46l14.47,28.5l-1.58,3.97
		L158.84,91.89z"/>
	<path class="st2" d="M216.09,92.07c1.78-3.24,3.67-5.77,5.84-6.58l6.92,7.36c-2.6,1.64-4.25,3.94-4.46,7.2l-1.23,69.08
		c1.13,4.91,2.72,10.33,5.84,12.81c-4.59,1.91-9.35,1.42-14.33-2.34c-3.97,3.6-9.45,4.9-15.82,4.84l-9.18-8.9
		c5.9,1.91,10.97,1.23,15.67-3.34c4.55,4.36,10.69,4.4,16.43,2.69l-6.78-9.54L216.09,92.07z"/>
	<polygon class="st2" points="197.72,141.76 198.28,116.49 174.9,164.46 183.52,171.81 	"/>
	<path class="st2" d="M144.27,171.9c-1.75,1.62-4.88,2.54-9.82,2.53l9.79,6.93c3.46,0.99,6.64,0.31,9.7-1.13
		c2.28,2.52,5.14,4.05,8.61,4.54c-2.56-6.02-4.85-12.11-5.81-18.53l-0.64-30.29l-6.27-12.91L149.33,163
		c1.02,6.58,3.58,11.15,7.38,14.09C151.64,177.79,146.96,177.27,144.27,171.9z"/>
	<path class="st2" d="M203.07,82.08c-0.83,0.21-1.93,0.32-3.31,0.32c-0.85,0-1.57-0.04-2.16-0.11l0,0"/>
	<g>
		<path class="st3" d="M199.47,77.59"/>
		<g>
			<path class="st4" d="M199.47,83.59c7.72,0,7.73-12,0-12C191.75,71.59,191.74,83.59,199.47,83.59L199.47,83.59z"/>
		</g>
	</g>
</g>
</svg>
